SplineFontDB: 3.2
FontName: DARoadSigns-Regular
FullName: DA RoadSigns Regular
FamilyName: DA RoadSigns
Weight: Regular
Copyright: Copyright (c) 2021, Joey Foo (https://joeyfoo.com/),\nwith Reserved Font Name "DA RoadSigns".\n\nThis Font Software is licensed under the SIL Open Font License, Version 1.1.
UComments: "2021-12-19: Created with FontForge (http://fontforge.org)"
FontLog: "v000.310+AAoA* Fix missing space glyph+AAoACgAA-v000.300+AAoA* Added various arrows+AAoACgAA-v000.220+AAoA* Update hyphen vertical alignment+AAoACgAA-v000.210+AAoA* Update font names+AAoACgAA-v000.200+AAoA* Initial release"
Version: 000.310
DefaultBaseFilename: DARoadSigns-Regular
ItalicAngle: 0
UnderlinePosition: -150
UnderlineWidth: 50
Ascent: 800
Descent: 200
InvalidEm: 0
LayerCount: 2
Layer: 0 0 "Back" 1
Layer: 1 0 "Fore" 0
XUID: [1021 579 -2131260999 20571]
StyleMap: 0x0000
FSType: 0
OS2Version: 0
OS2_WeightWidthSlopeOnly: 0
OS2_UseTypoMetrics: 1
CreationTime: 1639851655
ModificationTime: 1642324801
PfmFamily: 33
TTFWeight: 400
TTFWidth: 5
LineGap: 90
VLineGap: 0
OS2TypoAscent: 0
OS2TypoAOffset: 1
OS2TypoDescent: 0
OS2TypoDOffset: 1
OS2TypoLinegap: 90
OS2WinAscent: 0
OS2WinAOffset: 1
OS2WinDescent: 0
OS2WinDOffset: 1
HheadAscent: 0
HheadAOffset: 1
HheadDescent: 0
HheadDOffset: 1
OS2Vendor: 'PfEd'
Lookup: 258 0 0 "'kern' Horizontal Kerning in Latin lookup 0" { "Table 4 - uppercase" [150,0,6] "Table 2 - lowercase" [100,15,6] "Table 3 - uppercase-lowercase" [150,0,6] } ['kern' ('DFLT' <'dflt' > 'latn' <'dflt' > ) ]
MarkAttachClasses: 1
DEI: 91125
KernClass2: 3 3 "Table 4 - uppercase"
 7 A L V Y
 43 B C D E F G H I J K M N O P Q R S T U W X Z
 7 A J V Y
 43 B C D E F G H I K L M N O P Q R S T U W X Z
 0 {} 0 {} 0 {} 0 {} -20 {} -20 {} 0 {} -20 {} 0 {}
KernClass2: 5 5 "Table 3 - uppercase-lowercase"
 5 A C E
 25 B D G H I J M N O Q R S U
 17 F K P T V W X Y Z
 1 L
 3 v w
 3 f t
 3 x y
 39 a b c d e g h i j k l m n o p q r s u z

StartChar: A
Encoding: 65 65 0
Width: 500
Flags: W
HStem: -0.00195312 21G<50 154.29 345.716 450.001> 99.9971 100.005<192.86 307.146> 680.002 20G<195.715 304.292>
LayerCount: 2
Fore
SplineSet
300.006835938 700.001953125 m 1
 450.000976562 -0.001953125 l 1
 350.001953125 -0.001953125 l 1
 328.57421875 99.9970703125 l 1
 171.432617188 99.9970703125 l 1
 150.004882812 -0.001953125 l 1
 50 -0.001953125 l 1
 200.000976562 700.001953125 l 1
 300.006835938 700.001953125 l 1
250.00390625 466.666992188 m 1
 192.860351562 200.001953125 l 1
 307.146484375 200.001953125 l 1
 250.00390625 466.666992188 l 1
EndSplineSet
Validated: 1
EndChar

StartChar: B
Encoding: 66 66 1
Width: 449
Flags: W
HStem: -0.00195312 99.999<149.998 284.911> 320.003 99.999<149.998 260.774> 600.003 99.999<149.998 260.774>
VStem: 50 99.998<99.9971 320.003 420.002 600.003> 269.999 99.999<429.227 590.778> 299.999 99.999<115.086 310.27>
LayerCount: 2
Fore
SplineSet
50 -0.001953125 m 1xf4
 50 700.001953125 l 1
 270.005859375 700.001953125 l 2
 325.23046875 700.001953125 369.998046875 655.234375 369.998046875 600.009765625 c 0
 369.998046875 560.245117188 369.998046875 513.650390625 369.998046875 469.997070312 c 0xf8
 369.998046875 440.025390625 361.0234375 410.970703125 344.569335938 386.438476562 c 1
 378.393554688 358.928710938 399.998046875 316.990234375 399.998046875 270 c 0
 399.998046875 231.00390625 399.998046875 188.995117188 399.998046875 149.999023438 c 0
 399.998046875 67.16015625 332.842773438 -0.001953125 249.997070312 -0.001953125 c 2
 50 -0.001953125 l 1xf4
149.998046875 320.002929688 m 1
 149.998046875 99.9970703125 l 1
 249.997070312 99.9970703125 l 2
 263.260742188 99.9970703125 275.975585938 105.267578125 285.352539062 114.64453125 c 0
 294.728515625 124.020507812 299.999023438 136.7421875 299.999023438 149.999023438 c 0
 299.999023438 185.905273438 299.999023438 234.094726562 299.999023438 270 c 0xf4
 299.999023438 297.616210938 277.612304688 320.002929688 249.997070312 320.002929688 c 2
 149.998046875 320.002929688 l 1
149.998046875 420.001953125 m 1
 219.99609375 420.001953125 l 2
 247.612304688 420.001953125 269.999023438 442.388671875 269.999023438 469.997070312 c 0
 269.999023438 494.953125 269.999023438 525.051757812 269.999023438 550 c 0xf8
 269.999023438 577.616210938 247.612304688 600.002929688 219.99609375 600.002929688 c 2
 149.998046875 600.002929688 l 1
 149.998046875 420.001953125 l 1
EndSplineSet
Validated: 1
EndChar

StartChar: C
Encoding: 67 67 2
Width: 500
Flags: W
HStem: -0.00195312 99.999<172.153 327.852> 600.003 99.999<172.153 327.852>
VStem: 50 99.999<122.15 577.849> 350.003 99.998<122.15 249.998 450.002 577.849>
LayerCount: 2
Fore
SplineSet
50 200.001953125 m 2
 50 499.998046875 l 2
 50 610.458984375 139.54296875 700.001953125 250.004882812 700.001953125 c 1
 360.458984375 700.001953125 450.000976562 610.458984375 450.000976562 499.998046875 c 2
 450.000976562 450.001953125 l 1
 350.002929688 450.001953125 l 1
 350.002929688 450.001953125 350.002929688 490.310546875 350.002929688 529.13671875 c 0
 350.002929688 547.92578125 342.538085938 565.953125 329.245117188 579.24609375 c 0
 315.953125 592.53125 297.932617188 600.002929688 279.13671875 600.002929688 c 0
 260.220703125 600.002929688 239.78125 600.002929688 220.865234375 600.002929688 c 0
 202.076171875 600.002929688 184.048828125 592.53125 170.756835938 579.24609375 c 0
 157.470703125 565.953125 149.999023438 547.92578125 149.999023438 529.13671875 c 0
 149.999023438 434.006835938 149.999023438 265.993164062 149.999023438 170.862304688 c 0
 149.999023438 152.07421875 157.470703125 134.046875 170.756835938 120.75390625 c 0
 184.048828125 107.46875 202.076171875 99.9970703125 220.865234375 99.9970703125 c 0
 239.78125 99.9970703125 260.220703125 99.9970703125 279.13671875 99.9970703125 c 0
 297.932617188 99.9970703125 315.953125 107.46875 329.245117188 120.75390625 c 0
 342.538085938 134.046875 350.002929688 152.07421875 350.002929688 170.862304688 c 2
 350.002929688 249.998046875 l 1
 450.000976562 249.998046875 l 1
 450.000976562 249.998046875 450.000976562 229.388671875 450.000976562 200.001953125 c 0
 450.000976562 89.5400390625 360.458984375 -0.001953125 250.004882812 -0.001953125 c 1
 139.54296875 -0.001953125 50 89.5400390625 50 200.001953125 c 2
EndSplineSet
Validated: 1
EndChar

StartChar: D
Encoding: 68 68 3
Width: 449
Flags: W
HStem: -0.00195312 99.999<149.999 278.239> 600.003 99.999<149.999 278.239>
VStem: 50 99.999<99.9971 600.003> 300 99.998<121.761 578.239>
LayerCount: 2
Fore
SplineSet
399.998046875 487.403320312 m 0
 399.998046875 400.295898438 399.998046875 299.697265625 399.998046875 212.596679688 c 0
 399.998046875 156.215820312 377.596679688 102.141601562 337.7265625 62.2705078125 c 0
 297.862304688 22.3994140625 243.78125 -0.001953125 187.400390625 -0.001953125 c 2
 50 -0.001953125 l 1
 50 700.001953125 l 1
 50 700.001953125 114.079101562 700.001953125 187.400390625 700.001953125 c 0
 243.78125 700.001953125 297.862304688 677.600585938 337.7265625 637.729492188 c 0
 377.596679688 597.858398438 399.998046875 543.784179688 399.998046875 487.403320312 c 0
300 529.13671875 m 0
 300 547.92578125 292.528320312 565.953125 279.2421875 579.24609375 c 0
 265.950195312 592.53125 247.922851562 600.002929688 229.133789062 600.002929688 c 0
 190.307617188 600.002929688 149.999023438 600.002929688 149.999023438 600.002929688 c 1
 149.999023438 99.9970703125 l 1
 229.133789062 99.9970703125 l 2
 247.922851562 99.9970703125 265.950195312 107.46875 279.2421875 120.75390625 c 0
 292.528320312 134.046875 300 152.07421875 300 170.862304688 c 0
 300 265.993164062 300 434.006835938 300 529.13671875 c 0
EndSplineSet
Validated: 1
EndChar

StartChar: E
Encoding: 69 69 4
Width: 400
Flags: W
HStem: -0.00195312 99.999<149.999 350.003> 320.003 99.999<149.999 350.003> 600.003 99.999<149.999 350.003>
VStem: 50 300.003<-0.00195312 99.9971 320.003 420.002 600.003 700.002> 50 99.999<99.9971 320.003 420.002 600.003>
LayerCount: 2
Fore
SplineSet
350.002929688 700.001953125 m 1xf0
 350.002929688 600.002929688 l 1xf0
 149.999023438 600.002929688 l 1
 149.999023438 420.001953125 l 1xe8
 350.002929688 420.001953125 l 1
 350.002929688 320.002929688 l 1xf0
 149.999023438 320.002929688 l 1
 149.999023438 99.9970703125 l 1xe8
 350.002929688 99.9970703125 l 1
 350.002929688 -0.001953125 l 1
 50 -0.001953125 l 1
 50 700.001953125 l 1
 350.002929688 700.001953125 l 1xf0
EndSplineSet
Validated: 1
EndChar

StartChar: F
Encoding: 70 70 5
Width: 400
Flags: W
HStem: -0.00195312 21G<50 149.999> 320.003 99.999<149.999 350.003> 600.003 99.999<149.999 350.003>
VStem: 50 300.003<320.003 420.002 600.003 700.002> 50 99.999<-0.00195312 320.003 420.002 600.003>
LayerCount: 2
Fore
SplineSet
350.002929688 700.001953125 m 1xf0
 350.002929688 600.002929688 l 1xf0
 149.999023438 600.002929688 l 1
 149.999023438 420.001953125 l 1xe8
 350.002929688 420.001953125 l 1
 350.002929688 320.002929688 l 1xf0
 149.999023438 320.002929688 l 1
 149.999023438 -0.001953125 l 1
 50 -0.001953125 l 1xe8
 50 700.001953125 l 1
 350.002929688 700.001953125 l 1xf0
EndSplineSet
Validated: 1
EndChar

StartChar: G
Encoding: 71 71 6
Width: 500
Flags: W
HStem: -0.00195312 99.999<171.382 328.619> 320.003 99.999<250.004 350.002> 499.998 21G<350.002 450.001> 600.003 99.999<171.382 328.619>
VStem: 50 99.998<121.38 578.62> 350.002 99.999<-0.00195312 50.001 121.38 320.003 499.998 578.62>
LayerCount: 2
Fore
SplineSet
262.59765625 -0.001953125 m 0
 145.186523438 -0.001953125 50 95.1845703125 50 212.596679688 c 0
 50 301.806640625 50 405.177734375 50 493.697265625 c 0
 50 548.413085938 71.73828125 600.884765625 110.423828125 639.578125 c 0
 149.116210938 678.263671875 201.588867188 700.001953125 256.3046875 700.001953125 c 0
 256.311523438 700.001953125 256.311523438 700.001953125 256.318359375 700.001953125 c 0
 307.690429688 700.001953125 356.952148438 679.596679688 393.2734375 643.274414062 c 0
 429.595703125 606.953125 450.000976562 557.68359375 450.000976562 506.319335938 c 2
 450.000976562 499.998046875 l 1
 350.001953125 499.998046875 l 1
 350.001953125 529.13671875 l 2
 350.001953125 547.92578125 342.537109375 565.953125 329.245117188 579.24609375 c 0
 315.952148438 592.53125 297.931640625 600.002929688 279.135742188 600.002929688 c 0
 260.219726562 600.002929688 239.780273438 600.002929688 220.864257812 600.002929688 c 0
 202.075195312 600.002929688 184.047851562 592.53125 170.755859375 579.24609375 c 0
 157.469726562 565.953125 149.998046875 547.92578125 149.998046875 529.13671875 c 0
 149.998046875 434.006835938 149.998046875 265.993164062 149.998046875 170.862304688 c 0
 149.998046875 152.07421875 157.469726562 134.046875 170.755859375 120.75390625 c 0
 184.047851562 107.46875 202.075195312 99.9970703125 220.864257812 99.9970703125 c 0
 239.780273438 99.9970703125 260.219726562 99.9970703125 279.135742188 99.9970703125 c 0
 297.931640625 99.9970703125 315.952148438 107.46875 329.245117188 120.75390625 c 0
 342.537109375 134.046875 350.001953125 152.07421875 350.001953125 170.862304688 c 0
 350.001953125 235.173828125 350.001953125 320.002929688 350.001953125 320.002929688 c 1
 250.00390625 320.002929688 l 1
 250.00390625 420.001953125 l 1
 450.000976562 420.001953125 l 1
 450.000976562 -0.001953125 l 1
 350.001953125 -0.001953125 l 1
 350.001953125 50.0009765625 l 1
 350.001953125 36.736328125 344.731445312 24.0224609375 335.354492188 14.6455078125 c 0
 325.977539062 5.2685546875 313.263671875 -0.001953125 299.999023438 -0.001953125 c 0
 288.731445312 -0.001953125 276.07421875 -0.001953125 262.59765625 -0.001953125 c 0
EndSplineSet
Validated: 1
EndChar

StartChar: H
Encoding: 72 72 7
Width: 500
Flags: W
HStem: -0.00195312 21G<50 149.998 349.995 450.001> 320.003 99.999<149.998 349.995> 680.002 20G<50 149.998 349.995 450.001>
VStem: 50 99.998<-0.00195312 320.003 420.002 700.002> 349.995 100.006<-0.00195312 320.003 420.002 700.002>
LayerCount: 2
Fore
SplineSet
149.998046875 420.001953125 m 1
 349.995117188 420.001953125 l 1
 349.995117188 700.001953125 l 1
 450.000976562 700.001953125 l 1
 450.000976562 -0.001953125 l 1
 349.995117188 -0.001953125 l 1
 349.995117188 320.002929688 l 1
 149.998046875 320.002929688 l 1
 149.998046875 -0.001953125 l 1
 50 -0.001953125 l 1
 50 700.001953125 l 1
 149.998046875 700.001953125 l 1
 149.998046875 420.001953125 l 1
EndSplineSet
Validated: 1
EndChar

StartChar: I
Encoding: 73 73 8
Width: 199
Flags: W
HStem: -0.00195312 21G<50 149.999> 680.002 20G<50 149.999>
VStem: 50 99.999<-0.00195312 700.002>
LayerCount: 2
Fore
SplineSet
50 -0.001953125 m 1
 50 700.001953125 l 1
 149.999023438 700.001953125 l 1
 149.999023438 -0.001953125 l 1
 50 -0.001953125 l 1
EndSplineSet
Validated: 1
EndChar

StartChar: J
Encoding: 74 74 9
Width: 400
Flags: W
HStem: -0.00195312 99.999<160.03 240.676> 680.002 20G<250.004 350.003>
VStem: 50 100.006<110.028 200.002> 250.004 99.999<109.325 700.002>
LayerCount: 2
Fore
SplineSet
250.00390625 149.999023438 m 2
 250.00390625 700.001953125 l 1
 350.002929688 700.001953125 l 1
 350.002929688 700.001953125 350.002929688 363.091796875 350.002929688 156.737304688 c 0
 350.002929688 115.166015625 333.4921875 75.302734375 304.091796875 45.9091796875 c 0
 274.698242188 16.515625 234.834960938 -0.001953125 193.263671875 -0.001953125 c 0
 193.255859375 -0.001953125 193.249023438 -0.001953125 193.2421875 -0.001953125 c 0
 155.254882812 -0.001953125 118.8203125 15.08984375 91.9599609375 41.9501953125 c 0
 65.091796875 68.818359375 50 105.252929688 50 143.240234375 c 2
 50 200.001953125 l 1
 150.005859375 200.001953125 l 1
 150.005859375 149.999023438 l 2
 150.005859375 122.383789062 172.385742188 99.9970703125 200.000976562 99.9970703125 c 1
 227.6171875 99.9970703125 250.00390625 122.383789062 250.00390625 149.999023438 c 2
EndSplineSet
Validated: 1
EndChar

StartChar: K
Encoding: 75 75 10
Width: 449
Flags: W
HStem: -0.00195312 21G<50 149.999 290 399.998> 680.002 20G<50 149.999 290 399.998>
VStem: 50 99.999<-0.00195312 300.001 399.999 700.002>
LayerCount: 2
Fore
SplineSet
149.999023438 399.999023438 m 1
 300 700.001953125 l 1
 399.998046875 700.001953125 l 1
 249.997070312 349.99609375 l 1
 399.998046875 -0.001953125 l 1
 300 -0.001953125 l 1
 149.999023438 300.000976562 l 1
 149.999023438 -0.001953125 l 1
 50 -0.001953125 l 1
 50 700.001953125 l 1
 149.999023438 700.001953125 l 1
 149.999023438 399.999023438 l 1
EndSplineSet
Validated: 1
EndChar

StartChar: L
Encoding: 76 76 11
Width: 400
Flags: W
HStem: -0.00195312 99.999<149.998 350.002> 680.002 20G<50 149.998>
VStem: 50 99.998<99.9971 700.002>
LayerCount: 2
Fore
SplineSet
149.998046875 99.9970703125 m 1
 350.001953125 99.9970703125 l 1
 350.001953125 -0.001953125 l 1
 50 -0.001953125 l 1
 50 700.001953125 l 1
 149.998046875 700.001953125 l 1
 149.998046875 99.9970703125 l 1
EndSplineSet
Validated: 1
EndChar

StartChar: M
Encoding: 77 77 12
Width: 599
Flags: W
HStem: -0.00195312 21G<50 150.006 220.312 356.253 450.008 549.985> 680.002 20G<50 156.006 444.007 549.985>
VStem: 50 100.006<-0.00195312 320.003 676.668 700.002> 450.008 99.9775<-0.00195312 320.003 676.67 700.002>
LayerCount: 2
Fore
SplineSet
50 -0.001953125 m 1
 50 700.001953125 l 1
 150.005859375 700.001953125 l 1
 300 200.001953125 l 1
 450.0078125 700.001953125 l 1
 549.985351562 700.001953125 l 1
 549.985351562 -0.001953125 l 1
 450.0078125 -0.001953125 l 1
 450.0078125 320.002929688 l 1
 350.002929688 -0.001953125 l 1
 224.999023438 -0.001953125 l 1
 150.005859375 320.002929688 l 1
 150.005859375 -0.001953125 l 1
 50 -0.001953125 l 1
EndSplineSet
Validated: 1
EndChar

StartChar: N
Encoding: 78 78 13
Width: 499
Flags: W
HStem: -0.00195312 21G<50 149.977 340.91 449.979> 680.002 20G<50 159.069 350.002 449.979>
VStem: 50 99.9766<-0.00195312 439.997> 350.002 99.9775<260.003 700.002>
LayerCount: 2
Fore
SplineSet
149.9765625 -0.001953125 m 1
 50 -0.001953125 l 1
 50 700.001953125 l 1
 50 700.001953125 149.9765625 700.001953125 149.9765625 700.001953125 c 1
 350.001953125 260.002929688 l 1
 350.001953125 700.001953125 l 1
 449.979492188 700.001953125 l 1
 449.979492188 -0.001953125 l 1
 449.979492188 -0.001953125 350.001953125 -0.001953125 350.001953125 -0.001953125 c 1
 149.9765625 439.997070312 l 1
 149.9765625 -0.001953125 l 1
EndSplineSet
Validated: 1
EndChar

StartChar: O
Encoding: 79 79 14
Width: 499
Flags: W
HStem: -0.00195312 99.999<172.128 327.851> 600.003 99.999<172.128 327.851>
VStem: 50 99.9766<122.15 577.849> 350.002 99.9775<122.139 577.861>
LayerCount: 2
Fore
SplineSet
449.979492188 500.018554688 m 0
 449.979492188 405.954101562 449.979492188 294.045898438 449.979492188 199.981445312 c 0
 449.979492188 89.533203125 360.444335938 -0.001953125 250.024414062 -0.001953125 c 2
 249.954101562 -0.001953125 l 2
 139.53515625 -0.001953125 50 89.5400390625 50 200.001953125 c 2
 50 499.998046875 l 2
 50 610.458984375 139.53515625 700.001953125 249.954101562 700.001953125 c 0
 250.024414062 700.001953125 250.024414062 700.001953125 250.024414062 700.001953125 c 2
 360.444335938 700.001953125 449.979492188 610.466796875 449.979492188 500.018554688 c 0
350.001953125 529.13671875 m 0
 350.001953125 547.92578125 342.5234375 565.953125 329.258789062 579.24609375 c 0
 315.923828125 592.53125 297.931640625 600.002929688 279.09375 600.002929688 c 0
 260.184570312 600.002929688 239.793945312 600.002929688 220.885742188 600.002929688 c 0
 202.046875 600.002929688 184.055664062 592.53125 170.720703125 579.24609375 c 0
 157.456054688 565.953125 149.9765625 547.92578125 149.9765625 529.13671875 c 0
 149.9765625 434.006835938 149.9765625 265.993164062 149.9765625 170.862304688 c 0
 149.9765625 152.07421875 157.456054688 134.046875 170.720703125 120.75390625 c 0
 184.055664062 107.46875 202.046875 99.9970703125 220.885742188 99.9970703125 c 0
 239.793945312 99.9970703125 260.184570312 99.9970703125 279.09375 99.9970703125 c 0
 297.931640625 99.9970703125 315.923828125 107.46875 329.258789062 120.75390625 c 0
 342.5234375 134.046875 350.001953125 152.07421875 350.001953125 170.862304688 c 0
 350.001953125 265.993164062 350.001953125 434.006835938 350.001953125 529.13671875 c 0
EndSplineSet
Validated: 1
EndChar

StartChar: P
Encoding: 80 80 15
Width: 449
Flags: W
HStem: -0.00195312 21G<50 149.977> 249.998 99.998<149.977 284.931> 600.003 99.999<149.977 284.931>
VStem: 50 99.9766<-0.00195312 249.998 349.996 600.003> 299.979 99.9766<365.086 584.913>
LayerCount: 2
Fore
SplineSet
149.9765625 600.002929688 m 1
 149.9765625 349.99609375 l 1
 249.954101562 349.99609375 l 2
 263.21875 349.99609375 275.989257812 355.266601562 285.373046875 364.643554688 c 0
 294.686523438 374.020507812 299.978515625 386.7421875 299.978515625 399.999023438 c 0
 299.978515625 424.947265625 299.978515625 525.051757812 299.978515625 550 c 0
 299.978515625 563.2578125 294.686523438 575.978515625 285.373046875 585.35546875 c 0
 275.989257812 594.732421875 263.21875 600.002929688 249.954101562 600.002929688 c 2
 149.9765625 600.002929688 l 1
249.954101562 700.001953125 m 2
 332.857421875 700.001953125 399.955078125 632.83984375 399.955078125 550 c 2
 399.955078125 399.999023438 l 2
 399.955078125 317.16015625 332.857421875 249.998046875 249.954101562 249.998046875 c 2
 149.9765625 249.998046875 l 1
 149.9765625 -0.001953125 l 1
 50 -0.001953125 l 1
 50 700.001953125 l 1
 249.954101562 700.001953125 l 2
EndSplineSet
Validated: 1
EndChar

StartChar: Q
Encoding: 81 81 16
Width: 499
Flags: W
HStem: -150.003 100.006<308.553 449.979> -0.00195312 99.999<171.348 200.001 299.979 328.63> 600.003 99.999<172.128 327.821>
VStem: 50 99.9766<121.38 577.861> 200.001 99.9775<-41.4494 -0.00195312> 350.002 99.9775<121.38 577.849>
LayerCount: 2
Fore
SplineSet
200.000976562 -0.001953125 m 1
 117.09765625 -0.001953125 50 67.16015625 50 149.999023438 c 0
 50 252.185546875 50 388.611328125 50 500.018554688 c 0
 50 610.466796875 139.534179688 700.001953125 249.954101562 700.001953125 c 1
 360.444335938 700.001953125 449.979492188 610.458984375 449.979492188 499.998046875 c 2
 449.979492188 149.978515625 l 2
 449.979492188 67.146484375 382.810546875 -0.001953125 299.978515625 -0.001953125 c 1
 299.978515625 -21.6552734375 l 2
 299.978515625 -29.1689453125 302.94140625 -36.3798828125 308.303710938 -41.7001953125 c 0
 313.595703125 -47.0126953125 320.791992188 -49.9970703125 328.341796875 -49.9970703125 c 0
 371.803710938 -49.9970703125 449.979492188 -49.9970703125 449.979492188 -49.9970703125 c 1
 449.979492188 -150.002929688 l 1
 341.747070312 -150.002929688 l 2
 263.430664062 -150.002929688 200.000976562 -86.544921875 200.000976562 -8.2705078125 c 2
 200.000976562 -0.001953125 l 1
350.001953125 529.13671875 m 0
 350.001953125 547.92578125 342.5234375 565.953125 329.258789062 579.24609375 c 0
 315.923828125 592.53125 297.931640625 600.002929688 279.09375 600.002929688 c 0
 260.184570312 600.002929688 239.793945312 600.002929688 220.814453125 600.002929688 c 0
 202.046875 600.002929688 184.055664062 592.53125 170.719726562 579.24609375 c 0
 157.456054688 565.953125 149.9765625 547.92578125 149.9765625 529.13671875 c 0
 149.9765625 434.006835938 149.9765625 265.993164062 149.9765625 170.862304688 c 0
 149.9765625 152.07421875 157.456054688 134.046875 170.719726562 120.75390625 c 0
 184.055664062 107.46875 202.046875 99.9970703125 220.814453125 99.9970703125 c 0
 239.793945312 99.9970703125 260.184570312 99.9970703125 279.09375 99.9970703125 c 0
 297.931640625 99.9970703125 315.923828125 107.46875 329.258789062 120.75390625 c 0
 342.5234375 134.046875 350.001953125 152.07421875 350.001953125 170.862304688 c 0
 350.001953125 265.993164062 350.001953125 434.006835938 350.001953125 529.13671875 c 0
EndSplineSet
Validated: 1
EndChar

StartChar: R
Encoding: 82 82 17
Width: 450
Flags: W
HStem: -0.00195312 21G<50 150.048 296.714 400.026> 300.001 99.998<150.048 250.024> 600.003 99.999<150.048 284.931>
VStem: 50 100.048<-0.00195312 300.001 399.999 600.003> 300.049 99.9775<415.088 584.913>
LayerCount: 2
Fore
SplineSet
250.024414062 300.000976562 m 1
 150.047851562 300.000976562 l 1
 150.047851562 -0.001953125 l 1
 50 -0.001953125 l 1
 50 700.001953125 l 1
 250.024414062 700.001953125 l 2
 332.857421875 700.001953125 400.026367188 632.83984375 400.026367188 550 c 2
 400.026367188 450.001953125 l 2
 400.026367188 402.948242188 378.365234375 360.954101562 344.427734375 333.444335938 c 1
 400.026367188 -0.001953125 l 1
 300.048828125 -0.001953125 l 1
 250.024414062 300.000976562 l 1
150.047851562 600.002929688 m 1
 150.047851562 399.999023438 l 1
 250.024414062 399.999023438 l 2
 263.2890625 399.999023438 275.989257812 405.26953125 285.373046875 414.646484375 c 0
 294.756835938 424.0234375 300.048828125 436.737304688 300.048828125 450.001953125 c 0
 300.048828125 474.950195312 300.048828125 525.051757812 300.048828125 550 c 0
 300.048828125 563.2578125 294.756835938 575.978515625 285.373046875 585.35546875 c 0
 275.989257812 594.732421875 263.2890625 600.002929688 250.024414062 600.002929688 c 2
 150.047851562 600.002929688 l 1
EndSplineSet
Validated: 1
EndChar

StartChar: S
Encoding: 83 83 18
Width: 449
Flags: W
HStem: -0.00195312 99.999<169.551 276.74> 499.998 21G<299.979 399.956> 600.003 99.999<170.621 277.533>
VStem: 50 99.9775<119.566 200.002 484.22 579.353> 299.979 99.9775<123.217 265.223 499.998 577.557>
LayerCount: 2
Fore
SplineSet
50 200.001953125 m 1
 149.977539062 200.001953125 l 1
 149.977539062 170.862304688 l 2
 149.977539062 131.725585938 181.727539062 99.9970703125 220.815429688 99.9970703125 c 0
 223.567382812 99.9970703125 226.389648438 99.9970703125 229.0703125 99.9970703125 c 0
 247.909179688 99.9970703125 265.900390625 107.46875 279.235351562 120.75390625 c 0
 292.5 134.046875 299.978515625 152.07421875 299.978515625 170.862304688 c 2
 299.978515625 215.940429688 l 2
 299.978515625 237.466796875 290.171875 257.830078125 273.379882812 271.27734375 c 0
 232.880859375 303.676757812 154.987304688 366.012695312 102.705078125 407.81640625 c 0
 69.4033203125 434.479492188 50 474.844726562 50 517.530273438 c 0
 50 517.890625 50 518.2578125 50 518.6171875 c 0
 50 566.721679688 69.05078125 612.858398438 103.12890625 646.873046875 c 0
 137.13671875 680.887695312 183.208984375 700.001953125 231.328125 700.001953125 c 2
 231.328125 700.001953125 231.3984375 700.001953125 231.3984375 700.001953125 c 2
 324.461914062 700.001953125 399.956054688 624.513671875 399.956054688 531.40234375 c 2
 399.956054688 499.998046875 l 1
 299.978515625 499.998046875 l 1
 299.978515625 529.13671875 l 2
 299.978515625 568.274414062 268.228515625 600.002929688 229.0703125 600.002929688 c 0
 225.54296875 600.002929688 221.944335938 600.002929688 218.416992188 600.002929688 c 0
 200.212890625 600.002929688 182.856445312 592.791992188 170.015625 579.958007812 c 0
 157.174804688 567.130859375 149.977539062 549.725585938 149.977539062 531.578125 c 2
 149.977539062 531.564453125 l 2
 149.977539062 511.618164062 159.008789062 492.744140625 174.6015625 480.27734375 c 0
 209.456054688 452.38671875 274.719726562 400.232421875 326.013671875 359.168945312 c 0
 372.791992188 321.766601562 399.956054688 265.153320312 399.956054688 205.287109375 c 0
 399.956054688 197.518554688 399.956054688 189.524414062 399.956054688 181.396484375 c 0
 399.956054688 81.21484375 318.747070312 -0.001953125 218.557617188 -0.001953125 c 1
 173.825195312 -0.001953125 130.998046875 17.7568359375 99.318359375 49.373046875 c 0
 67.7099609375 80.9892578125 50 123.873046875 50 168.577148438 c 2
 50 200.001953125 l 1
EndSplineSet
Validated: 1
EndChar

StartChar: T
Encoding: 84 84 19
Width: 400
Flags: W
HStem: -0.00195312 21G<149.978 249.955> 600.003 99.999<50 149.978 249.955 350.003>
VStem: 149.978 99.9775<-0.00195312 600.003>
LayerCount: 2
Fore
SplineSet
50 700.001953125 m 1
 350.002929688 700.001953125 l 1
 350.002929688 600.002929688 l 1
 249.955078125 600.002929688 l 1
 249.955078125 -0.001953125 l 1
 149.977539062 -0.001953125 l 1
 149.977539062 600.002929688 l 1
 50 600.002929688 l 1
 50 700.001953125 l 1
EndSplineSet
Validated: 1
EndChar

StartChar: U
Encoding: 85 85 20
Width: 500
Flags: W
HStem: -0.00195312 99.999<172.188 327.892> 680.002 20G<50 150.048 350.003 450.051>
VStem: 50 100.048<122.15 700.002> 350.003 100.048<122.15 700.002>
LayerCount: 2
Fore
SplineSet
50 700.001953125 m 1
 150.047851562 700.001953125 l 1
 150.047851562 700.001953125 150.047851562 329.626953125 150.047851562 170.862304688 c 0
 150.047851562 152.07421875 157.526367188 134.046875 170.791015625 120.75390625 c 0
 184.055664062 107.46875 202.118164062 99.9970703125 220.885742188 99.9970703125 c 0
 239.794921875 99.9970703125 260.255859375 99.9970703125 279.165039062 99.9970703125 c 0
 297.932617188 99.9970703125 315.995117188 107.46875 329.258789062 120.75390625 c 0
 342.59375 134.046875 350.002929688 152.07421875 350.002929688 170.862304688 c 2
 350.002929688 700.001953125 l 1
 450.05078125 700.001953125 l 1
 450.05078125 700.001953125 450.05078125 406.877929688 450.05078125 200.001953125 c 0
 450.05078125 89.5400390625 360.515625 -0.001953125 250.025390625 -0.001953125 c 1
 139.60546875 -0.001953125 50 89.5400390625 50 200.001953125 c 2
 50 700.001953125 l 1
EndSplineSet
Validated: 1
EndChar

StartChar: V
Encoding: 86 86 21
Width: 500
Flags: W
HStem: -0.00195312 21G<195.715 304.335> 680.002 20G<50 154.395 345.655 450.05>
LayerCount: 2
Fore
SplineSet
50 700.001953125 m 1
 150.047851562 700.001953125 l 1
 250.025390625 240 l 1
 350.001953125 700.001953125 l 1
 450.049804688 700.001953125 l 1
 300.048828125 -0.001953125 l 1
 200.000976562 -0.001953125 l 1
 50 700.001953125 l 1
EndSplineSet
Validated: 1
EndChar

StartChar: W
Encoding: 87 87 22
Width: 600
Flags: W
HStem: -0.00195312 21G<147.189 252.804 347.227 452.906> 680.002 20G<50 152.986 247.083 352.945 447.107 550.027>
VStem: 150.048 99.9775<-0.00195312 48.9749> 250.025 99.9766<652.425 700.002> 350.002 100.048<-0.00195312 49.0093>
LayerCount: 2
Fore
SplineSet
50 700.001953125 m 1xe8
 150.047851562 700.001953125 l 1xe8
 200.000976562 360.000976562 l 1
 250.025390625 700.001953125 l 1
 350.001953125 700.001953125 l 1xd0
 400.026367188 360.000976562 l 1
 450.049804688 700.001953125 l 1
 550.02734375 700.001953125 l 1
 450.049804688 -0.001953125 l 1
 350.001953125 -0.001953125 l 1
 300.048828125 360.000976562 l 1
 250.025390625 -0.001953125 l 1
 150.047851562 -0.001953125 l 1
 50 700.001953125 l 1xe8
EndSplineSet
Validated: 1
EndChar

StartChar: X
Encoding: 88 88 23
Width: 500
Flags: W
HStem: -0.00195312 21G<50 158.046 342.004 450.05> 680.002 20G<50 158.046 342.004 450.05>
LayerCount: 2
Fore
SplineSet
50 700.001953125 m 1
 150.047851562 700.001953125 l 1
 250.025390625 450.001953125 l 1
 350.001953125 700.001953125 l 1
 450.049804688 700.001953125 l 1
 300.048828125 349.99609375 l 1
 450.049804688 -0.001953125 l 1
 350.001953125 -0.001953125 l 1
 250.025390625 249.998046875 l 1
 150.047851562 -0.001953125 l 1
 50 -0.001953125 l 1
 200.000976562 349.99609375 l 1
 50 700.001953125 l 1
EndSplineSet
Validated: 1
EndChar

StartChar: Y
Encoding: 89 89 24
Width: 499
Flags: W
HStem: -0.00195312 21G<200.001 299.979> 680.002 20G<50 156.647 343.337 449.979>
VStem: 200.001 99.9775<-0.00195312 249.998>
LayerCount: 2
Fore
SplineSet
50 700.001953125 m 1
 149.977539062 700.001953125 l 1
 250.025390625 399.999023438 l 1
 350.001953125 700.001953125 l 1
 449.979492188 700.001953125 l 1
 299.978515625 249.998046875 l 1
 299.978515625 -0.001953125 l 1
 200.000976562 -0.001953125 l 1
 200.000976562 249.998046875 l 1
 50 700.001953125 l 1
EndSplineSet
Validated: 1
EndChar

StartChar: Z
Encoding: 90 90 25
Width: 400
Flags: W
HStem: -0.00195312 99.999<150.048 350.002> 600.003 99.999<50 250.024>
VStem: 50 300.002<-0.00195312 99.9971 600.003 700.002>
LayerCount: 2
Fore
SplineSet
50 700.001953125 m 1
 350.001953125 700.001953125 l 1
 350.001953125 600.002929688 l 1
 150.047851562 99.9970703125 l 1
 350.001953125 99.9970703125 l 1
 350.001953125 -0.001953125 l 1
 50 -0.001953125 l 1
 50 99.9970703125 l 1
 250.024414062 600.002929688 l 1
 50 600.002929688 l 1
 50 700.001953125 l 1
EndSplineSet
Validated: 1
EndChar

StartChar: parenleft
Encoding: 40 40 26
Width: 274
Flags: W
VStem: 50 99.9775<151.873 548.124>
LayerCount: 2
Fore
SplineSet
224.977539062 749.997070312 m 1
 224.977539062 749.997070312 149.977539062 550 149.977539062 349.99609375 c 0
 149.977539062 149.999023438 224.977539062 -49.9970703125 224.977539062 -49.9970703125 c 1
 125.000976562 -49.9970703125 l 1
 125.000976562 -49.9970703125 50 149.999023438 50 349.99609375 c 0
 50 550 125.000976562 749.997070312 125.000976562 749.997070312 c 1
 224.977539062 749.997070312 l 1
EndSplineSet
Validated: 1
EndChar

StartChar: parenright
Encoding: 41 41 27
Width: 274
Flags: W
VStem: 125 99.9775<151.873 548.124>
LayerCount: 2
Fore
SplineSet
50 749.997070312 m 1
 149.9765625 749.997070312 l 1
 149.9765625 749.997070312 224.977539062 550 224.977539062 349.99609375 c 0
 224.977539062 149.999023438 149.9765625 -49.9970703125 149.9765625 -49.9970703125 c 1
 50 -49.9970703125 l 1
 50 -49.9970703125 125 149.999023438 125 349.99609375 c 0
 125 550 50 749.997070312 50 749.997070312 c 1
EndSplineSet
Validated: 1
EndChar

StartChar: zero
Encoding: 48 48 28
Width: 449
Flags: W
HStem: -0.00195312 99.999<173.489 276.467> 600.003 99.999<173.489 276.467>
VStem: 50 99.9775<123.519 576.481> 299.979 99.9775<123.519 576.481>
LayerCount: 2
Fore
SplineSet
399.956054688 529.919921875 m 0
 399.956054688 420.678710938 399.956054688 279.321289062 399.956054688 170.080078125 c 0
 399.956054688 76.1494140625 323.826171875 -0.001953125 229.916992188 -0.001953125 c 0
 226.600585938 -0.001953125 223.35546875 -0.001953125 220.0390625 -0.001953125 c 0
 126.129882812 -0.001953125 50 76.1494140625 50 170.080078125 c 0
 50 279.321289062 50 420.678710938 50 529.919921875 c 0
 50 623.850585938 126.129882812 700.001953125 220.0390625 700.001953125 c 0
 223.35546875 700.001953125 226.600585938 700.001953125 229.916992188 700.001953125 c 0
 323.826171875 700.001953125 399.956054688 623.850585938 399.956054688 529.919921875 c 0
299.978515625 529.13671875 m 0
 299.978515625 547.92578125 292.5 565.953125 279.235351562 579.24609375 c 0
 265.970703125 592.53125 247.908203125 600.002929688 229.140625 600.002929688 c 0
 226.389648438 600.002929688 223.637695312 600.002929688 220.885742188 600.002929688 c 0
 202.047851562 600.002929688 184.055664062 592.53125 170.720703125 579.24609375 c 0
 157.456054688 565.953125 149.977539062 547.92578125 149.977539062 529.13671875 c 0
 149.977539062 434.006835938 149.977539062 265.993164062 149.977539062 170.862304688 c 0
 149.977539062 152.07421875 157.456054688 134.046875 170.720703125 120.75390625 c 0
 184.055664062 107.46875 202.047851562 99.9970703125 220.885742188 99.9970703125 c 0
 223.637695312 99.9970703125 226.389648438 99.9970703125 229.140625 99.9970703125 c 0
 247.908203125 99.9970703125 265.970703125 107.46875 279.235351562 120.75390625 c 0
 292.5 134.046875 299.978515625 152.07421875 299.978515625 170.862304688 c 0
 299.978515625 265.993164062 299.978515625 434.006835938 299.978515625 529.13671875 c 0
EndSplineSet
Validated: 1
EndChar

StartChar: one
Encoding: 49 49 29
Width: 300
Flags: W
HStem: -0.00195312 21G<150.048 250.024> 680.002 20G<110.031 250.024>
VStem: 150.048 99.9766<-0.00195312 600.003>
LayerCount: 2
Fore
SplineSet
250.024414062 -0.001953125 m 1
 150.047851562 -0.001953125 l 1
 150.047851562 600.002929688 l 1
 50 600.002929688 l 1
 50 649.999023438 l 1
 150.047851562 700.001953125 l 1
 250.024414062 700.001953125 l 1
 250.024414062 -0.001953125 l 1
EndSplineSet
Validated: 1
EndChar

StartChar: two
Encoding: 50 50 30
Width: 399
Flags: W
HStem: -0.00195312 99.999<149.978 349.932> 499.998 21G<50 149.978> 600.003 99.999<159.539 240.405>
VStem: 50 99.9775<499.998 590.106> 249.955 99.9766<401.813 590.12>
LayerCount: 2
Fore
SplineSet
50 499.998046875 m 1
 50 550 l 2
 50 589.779296875 65.8046875 627.936523438 93.8857421875 656.06640625 c 0
 122.037109375 684.197265625 160.208007812 700.001953125 200.000976562 700.001953125 c 1
 239.723632812 700.001953125 277.89453125 684.197265625 306.045898438 656.073242188 c 0
 334.198242188 627.943359375 349.931640625 589.793945312 349.931640625 550.021484375 c 0
 349.931640625 542.90234375 349.931640625 535.790039062 349.931640625 528.7421875 c 0
 349.931640625 444.794921875 325.096679688 362.724609375 278.529296875 292.881835938 c 0
 221.09765625 206.740234375 149.977539062 99.9970703125 149.977539062 99.9970703125 c 1
 349.931640625 99.9970703125 l 1
 349.931640625 -0.001953125 l 1
 50 -0.001953125 l 1
 50 -0.001953125 50 30.0126953125 50 60.626953125 c 0
 50 102.600585938 62.41796875 143.635742188 85.701171875 178.560546875 c 0
 118.227539062 227.377929688 166.557617188 299.859375 202.329101562 353.587890625 c 0
 233.374023438 400.154296875 249.955078125 454.86328125 249.955078125 510.828125 c 0
 249.955078125 524.254882812 249.955078125 537.73046875 249.955078125 550 c 0
 249.955078125 577.616210938 227.588867188 600.002929688 200.000976562 600.002929688 c 1
 172.34375 600.002929688 149.977539062 577.616210938 149.977539062 550 c 2
 149.977539062 499.998046875 l 1
 50 499.998046875 l 1
EndSplineSet
Validated: 1
EndChar

StartChar: three
Encoding: 51 51 31
Width: 400
Flags: W
HStem: -0.00195312 99.999<159.539 240.429> 300.001 99.998<149.978 228.587> 499.998 21G<50 149.978> 600.003 99.999<159.539 240.429>
VStem: 50 99.9775<109.894 200.002 499.998 590.106> 249.955 100.048<109.877 278.617 421.383 590.12>
LayerCount: 2
Fore
SplineSet
50 499.998046875 m 1
 50 550 l 2
 50 589.779296875 65.8046875 627.936523438 93.8857421875 656.06640625 c 0
 122.037109375 684.197265625 160.208007812 700.001953125 200.000976562 700.001953125 c 1
 239.794921875 700.001953125 277.965820312 684.197265625 306.046875 656.073242188 c 0
 334.198242188 627.943359375 350.002929688 589.793945312 350.002929688 550.021484375 c 0
 350.002929688 496.279296875 350.002929688 439.333984375 350.002929688 399.999023438 c 0
 350.002929688 386.7421875 344.7109375 374.020507812 335.327148438 364.643554688 c 0
 325.943359375 355.266601562 313.243164062 349.99609375 299.978515625 349.99609375 c 1
 313.243164062 349.99609375 325.943359375 344.733398438 335.327148438 335.36328125 c 0
 344.7109375 325.986328125 350.002929688 313.272460938 350.002929688 300.021484375 c 0
 350.002929688 260.6875 350.002929688 203.727539062 350.002929688 149.978515625 c 0
 350.002929688 110.19921875 334.198242188 72.056640625 306.046875 43.92578125 c 0
 277.965820312 15.802734375 239.794921875 -0.001953125 200.000976562 -0.001953125 c 1
 160.208007812 -0.001953125 122.037109375 15.802734375 93.8857421875 43.93359375 c 0
 65.8046875 72.0634765625 50 110.220703125 50 149.999023438 c 2
 50 200.001953125 l 1
 149.977539062 200.001953125 l 1
 149.977539062 149.999023438 l 2
 149.977539062 122.383789062 172.34375 99.9970703125 200.000976562 99.9970703125 c 1
 227.588867188 99.9970703125 249.955078125 122.383789062 249.955078125 149.999023438 c 0
 249.955078125 173.924804688 249.955078125 202.986328125 249.955078125 229.134765625 c 0
 249.955078125 247.930664062 242.546875 265.950195312 229.211914062 279.243164062 c 0
 215.947265625 292.536132812 197.884765625 300.000976562 179.1171875 300.000976562 c 2
 149.977539062 300.000976562 l 1
 149.977539062 399.999023438 l 1
 149.977539062 399.999023438 162.748046875 399.999023438 179.1171875 399.999023438 c 0
 197.884765625 399.999023438 215.947265625 407.463867188 229.211914062 420.756835938 c 0
 242.546875 434.048828125 249.955078125 452.069335938 249.955078125 470.865234375 c 2
 249.955078125 550 l 2
 249.955078125 577.616210938 227.588867188 600.002929688 200.000976562 600.002929688 c 1
 172.34375 600.002929688 149.977539062 577.616210938 149.977539062 550 c 2
 149.977539062 499.998046875 l 1
 50 499.998046875 l 1
EndSplineSet
Validated: 1
EndChar

StartChar: four
Encoding: 52 52 32
Width: 450
Flags: W
HStem: -0.00195312 21G<250.025 350.003> 200.002 99.999<161.831 250.025 350.003 400.026> 680.002 20G<240.024 350.003>
VStem: 250.025 99.9775<-0.00195312 200.002 300.001 475>
LayerCount: 2
Fore
SplineSet
50 200.001953125 m 1
 50 300.000976562 l 1
 250.025390625 700.001953125 l 1
 350.002929688 700.001953125 l 1
 350.002929688 300.000976562 l 1
 400.026367188 300.000976562 l 1
 400.026367188 200.001953125 l 1
 350.002929688 200.001953125 l 1
 350.002929688 -0.001953125 l 1
 250.025390625 -0.001953125 l 1
 250.025390625 200.001953125 l 1
 50 200.001953125 l 1
250.025390625 475 m 1
 161.831054688 300.000976562 l 1
 250.025390625 300.000976562 l 1
 250.025390625 475 l 1
EndSplineSet
Validated: 1
EndChar

StartChar: five
Encoding: 53 53 33
Width: 400
Flags: W
HStem: -0.00195312 99.999<159.63 234.911> 399.999 99.999<159.331 237.049> 600.003 99.999<150.048 350.002>
VStem: 50 100.048<109.611 200.002 349.996 390.776 474.513 600.003> 250.024 99.9775<115.086 384.91>
LayerCount: 2
Fore
SplineSet
200.000976562 399.999023438 m 1
 172.4140625 399.999023438 150.047851562 377.619140625 150.047851562 350.00390625 c 2
 150.047851562 349.99609375 l 1
 50 349.99609375 l 1
 50 700.001953125 l 1
 350.001953125 700.001953125 l 1
 350.001953125 600.002929688 l 1
 150.047851562 600.002929688 l 1
 150.047851562 474.512695312 l 1
 171.28515625 490.359375 199.294921875 499.998046875 229.987304688 499.998046875 c 0
 296.02734375 499.998046875 349.579101562 455.540039062 350.001953125 400.6484375 c 2
 350.001953125 399.999023438 l 1
 350.001953125 399.999023438 350.001953125 237.8203125 350.001953125 119.999023438 c 0
 350.001953125 88.171875 337.373046875 57.6494140625 314.865234375 35.1494140625 c 0
 292.358398438 12.6416015625 261.877929688 -0.001953125 229.987304688 -0.001953125 c 0
 210.301757812 -0.001953125 189.770507812 -0.001953125 170.014648438 -0.001953125 c 0
 138.194335938 -0.001953125 107.713867188 12.6416015625 85.20703125 35.1494140625 c 0
 62.69921875 57.6494140625 50 88.171875 50 119.999023438 c 2
 50 200.001953125 l 1
 150.047851562 200.001953125 l 1
 150.047851562 149.999023438 l 2
 150.047851562 122.383789062 172.4140625 99.9970703125 200.000976562 99.9970703125 c 1
 213.265625 99.9970703125 226.036132812 105.267578125 235.349609375 114.64453125 c 0
 244.733398438 124.020507812 250.024414062 136.7421875 250.024414062 149.999023438 c 0
 250.024414062 205.491210938 250.024414062 294.51171875 250.024414062 349.99609375 c 0
 250.024414062 363.260742188 244.733398438 375.974609375 235.349609375 385.3515625 c 0
 226.036132812 394.728515625 213.265625 399.999023438 200.000976562 399.999023438 c 1
EndSplineSet
Validated: 1
EndChar

StartChar: six
Encoding: 54 54 34
Width: 400
Flags: W
HStem: -0.00195312 99.999<159.539 240.405> 300.001 99.998<159.263 239.959> 499.998 21G<249.955 350.003> 600.003 99.999<159.861 240.071>
VStem: 50 99.9775<109.894 290.776 374.508 590.12> 249.955 100.048<109.894 290.776 499.998 590.106>
LayerCount: 2
Fore
SplineSet
350.002929688 300.000976562 m 1
 350.002929688 149.999023438 l 2
 350.002929688 110.220703125 334.198242188 72.0634765625 306.045898438 43.93359375 c 0
 277.89453125 15.802734375 239.723632812 -0.001953125 200.000976562 -0.001953125 c 1
 160.208007812 -0.001953125 122.037109375 15.802734375 93.8857421875 43.93359375 c 0
 65.8046875 72.0634765625 50 110.220703125 50 149.999023438 c 0
 50 268.102539062 50 431.92578125 50 550.021484375 c 0
 50 589.793945312 65.8046875 627.943359375 93.8857421875 656.073242188 c 0
 122.037109375 684.197265625 160.208007812 700.001953125 199.930664062 700.001953125 c 2
 199.930664062 700.001953125 200.000976562 700.001953125 200.000976562 700.001953125 c 2
 239.723632812 700.001953125 277.89453125 684.197265625 306.045898438 656.06640625 c 0
 334.198242188 627.936523438 350.002929688 589.779296875 350.002929688 550 c 2
 350.002929688 499.998046875 l 1
 249.955078125 499.998046875 l 1
 249.955078125 550 l 2
 249.955078125 577.616210938 227.588867188 600.002929688 200.000976562 600.002929688 c 1
 172.34375 600.002929688 149.977539062 577.616210938 149.977539062 550 c 0
 149.977539062 483.572265625 149.977539062 374.5078125 149.977539062 374.5078125 c 1
 171.21484375 390.354492188 199.225585938 399.999023438 229.987304688 399.999023438 c 0
 295.95703125 399.999023438 349.579101562 355.541992188 350.002929688 300.642578125 c 2
 350.002929688 300.000976562 l 1
249.955078125 249.998046875 m 2
 249.955078125 277.61328125 227.588867188 300.000976562 200.000976562 300.000976562 c 1
 172.34375 300.000976562 149.977539062 277.61328125 149.977539062 249.998046875 c 2
 149.977539062 149.999023438 l 2
 149.977539062 122.383789062 172.34375 99.9970703125 200.000976562 99.9970703125 c 1
 227.588867188 99.9970703125 249.955078125 122.383789062 249.955078125 149.999023438 c 2
 249.955078125 249.998046875 l 2
EndSplineSet
Validated: 1
EndChar

StartChar: seven
Encoding: 55 55 35
Width: 400
Flags: W
HStem: -0.00195312 21G<50 155.693> 600.003 99.999<50 224.979>
VStem: 50 300.003<575.506 600.003>
LayerCount: 2
Fore
SplineSet
50 600.002929688 m 1
 50 700.001953125 l 1
 350.002929688 700.001953125 l 1
 149.977539062 -0.001953125 l 1
 50 -0.001953125 l 1
 224.978515625 600.002929688 l 1
 50 600.002929688 l 1
EndSplineSet
Validated: 1
EndChar

StartChar: eight
Encoding: 56 56 36
Width: 450
Flags: W
HStem: -0.00195312 99.999<165.095 284.931> 349.996 100.006<165.095 284.931> 600.003 99.999<165.095 284.931>
VStem: 50 100.048<115.086 334.914 465.085 584.913> 299.979 100.047<115.086 334.914 465.085 584.913>
LayerCount: 2
Fore
SplineSet
80.267578125 390.346679688 m 0
 61.4296875 411.53515625 50 439.432617188 50 469.997070312 c 2
 50 580.000976562 l 2
 50 646.2734375 103.762695312 700.001953125 170.014648438 700.001953125 c 2
 280.010742188 700.001953125 l 2
 346.262695312 700.001953125 400.025390625 646.2734375 400.025390625 580.000976562 c 2
 400.025390625 469.997070312 l 2
 400.025390625 439.432617188 388.595703125 411.53515625 369.7578125 390.346679688 c 0
 388.737304688 365.21484375 400.025390625 333.923828125 400.025390625 300.000976562 c 0
 400.025390625 251.733398438 400.025390625 198.266601562 400.025390625 149.999023438 c 0
 400.025390625 67.16015625 332.857421875 -0.001953125 250.024414062 -0.001953125 c 0
 233.444335938 -0.001953125 216.581054688 -0.001953125 200.000976562 -0.001953125 c 0
 117.168945312 -0.001953125 50 67.16015625 50 149.999023438 c 0
 50 198.266601562 50 251.733398438 50 300.000976562 c 0
 50 333.923828125 61.2880859375 365.21484375 80.267578125 390.346679688 c 0
299.978515625 300.000976562 m 0
 299.978515625 313.2578125 294.756835938 325.979492188 285.373046875 335.356445312 c 0
 275.989257812 344.733398438 263.2890625 349.99609375 250.024414062 349.99609375 c 0
 233.938476562 349.99609375 216.087890625 349.99609375 200.000976562 349.99609375 c 0
 186.736328125 349.99609375 174.036132812 344.733398438 164.65234375 335.356445312 c 0
 155.268554688 325.979492188 150.047851562 313.2578125 150.047851562 300.000976562 c 0
 150.047851562 256.432617188 150.047851562 193.567382812 150.047851562 149.999023438 c 0
 150.047851562 136.7421875 155.268554688 124.020507812 164.65234375 114.64453125 c 0
 174.036132812 105.267578125 186.736328125 99.9970703125 200.000976562 99.9970703125 c 0
 216.087890625 99.9970703125 233.938476562 99.9970703125 250.024414062 99.9970703125 c 0
 263.2890625 99.9970703125 275.989257812 105.267578125 285.373046875 114.64453125 c 0
 294.756835938 124.020507812 299.978515625 136.7421875 299.978515625 149.999023438 c 0
 299.978515625 193.567382812 299.978515625 256.432617188 299.978515625 300.000976562 c 0
299.978515625 550 m 2
 299.978515625 563.2578125 294.756835938 575.978515625 285.373046875 585.35546875 c 0
 275.989257812 594.732421875 263.2890625 600.002929688 250.024414062 600.002929688 c 2
 200.000976562 600.002929688 l 2
 186.736328125 600.002929688 174.036132812 594.732421875 164.65234375 585.35546875 c 0
 155.268554688 575.978515625 150.047851562 563.2578125 150.047851562 550 c 2
 150.047851562 499.998046875 l 2
 150.047851562 486.740234375 155.268554688 474.018554688 164.65234375 464.642578125 c 0
 174.036132812 455.265625 186.736328125 450.001953125 200.000976562 450.001953125 c 2
 250.024414062 450.001953125 l 2
 263.2890625 450.001953125 275.989257812 455.265625 285.373046875 464.642578125 c 0
 294.756835938 474.018554688 299.978515625 486.740234375 299.978515625 499.998046875 c 2
 299.978515625 550 l 2
EndSplineSet
Validated: 1
EndChar

StartChar: nine
Encoding: 57 57 37
Width: 449
Flags: W
HStem: -0.00195312 99.999<170.595 276.467> 300.001 99.998<172.164 264.001> 600.003 99.999<171.346 276.467>
VStem: 50 99.9775<120.615 200.002 422.177 578.62> 299.979 99.9775<123.519 353.433 421.383 576.481>
LayerCount: 2
Fore
SplineSet
50 529.919921875 m 2
 50 575.026367188 67.9208984375 618.291015625 99.8125 650.182617188 c 0
 131.703125 682.080078125 174.954101562 700.001953125 220.0390625 700.001953125 c 0
 223.35546875 700.001953125 226.600585938 700.001953125 229.916992188 700.001953125 c 0
 323.826171875 700.001953125 399.956054688 623.850585938 399.956054688 529.919921875 c 0
 399.956054688 420.678710938 399.956054688 279.321289062 399.956054688 170.080078125 c 0
 399.956054688 76.1494140625 323.826171875 -0.001953125 229.916992188 -0.001953125 c 0
 226.600585938 -0.001953125 223.35546875 -0.001953125 220.0390625 -0.001953125 c 0
 174.954101562 -0.001953125 131.703125 17.9189453125 99.8125 49.8173828125 c 0
 67.9208984375 81.708984375 50 124.973632812 50 170.080078125 c 0
 50 188.084960938 50 200.001953125 50 200.001953125 c 1
 149.977539062 200.001953125 l 1
 149.977539062 170.862304688 l 2
 149.977539062 131.725585938 181.727539062 99.9970703125 220.815429688 99.9970703125 c 0
 223.56640625 99.9970703125 226.318359375 99.9970703125 229.0703125 99.9970703125 c 0
 247.908203125 99.9970703125 265.900390625 107.46875 279.235351562 120.75390625 c 0
 292.5 134.046875 299.978515625 152.07421875 299.978515625 170.862304688 c 0
 299.978515625 245.841796875 299.978515625 353.432617188 299.978515625 353.432617188 c 1
 274.295898438 320.899414062 234.573242188 300.000976562 189.982421875 300.000976562 c 0
 112.723632812 300.000976562 50 362.731445312 50 439.997070312 c 2
 50 529.919921875 l 2
299.978515625 529.13671875 m 0
 299.978515625 547.92578125 292.5 565.953125 279.235351562 579.24609375 c 0
 265.900390625 592.53125 247.908203125 600.002929688 229.0703125 600.002929688 c 0
 226.318359375 600.002929688 223.56640625 600.002929688 220.815429688 600.002929688 c 0
 202.046875 600.002929688 183.985351562 592.53125 170.720703125 579.24609375 c 0
 157.456054688 565.953125 149.977539062 547.92578125 149.977539062 529.13671875 c 0
 149.977539062 510.220703125 149.977539062 489.78125 149.977539062 470.865234375 c 0
 149.977539062 452.069335938 157.456054688 434.048828125 170.720703125 420.756835938 c 0
 183.985351562 407.463867188 202.046875 399.999023438 220.815429688 399.999023438 c 0
 223.56640625 399.999023438 226.318359375 399.999023438 229.0703125 399.999023438 c 0
 247.908203125 399.999023438 265.900390625 407.463867188 279.235351562 420.756835938 c 0
 292.5 434.048828125 299.978515625 452.069335938 299.978515625 470.865234375 c 0
 299.978515625 489.78125 299.978515625 510.220703125 299.978515625 529.13671875 c 0
EndSplineSet
Validated: 1
EndChar

StartChar: colon
Encoding: 58 58 38
Width: 200
InSpiro: 1
Flags: W
HStem: -0.429688 100.43<50 150> 319.57 100.43<50 150>
VStem: 50 100<-0.429688 100 319.57 420>
LayerCount: 2
Fore
SplineSet
150 100 m 1
 150 -0.4296875 l 1
 50 -0.4296875 l 1
 50 100 l 1
 150 100 l 1
  Spiro
    150 100 v
    150 -0.429688 v
    50 -0.429688 v
    50 100 v
    0 0 z
  EndSpiro
150 420 m 1
 150 319.5703125 l 1
 50 319.5703125 l 1
 50 420 l 1
 150 420 l 1
  Spiro
    150 420 v
    150 319.57 v
    50 319.57 v
    50 420 v
    0 0 z
  EndSpiro
EndSplineSet
Validated: 1
EndChar

StartChar: a
Encoding: 97 97 39
Width: 399
Flags: W
HStem: 0 100<156.188 243.812> 400 100<156.188 243.812>
VStem: 50 100<350 393.812> 250 100<4.11987 40 106.188 250 350 393.812>
LayerCount: 2
Fore
SplineSet
390 0 m 1
 390 0 390 0 290 0 c 0
 250 0 250 38 250 40 c 1
 250 38 250 0 210 0 c 0
 190 0 166 0 142 0 c 0
 50 0 50 92 50 92 c 1
 50 92 50 150 91 191 c 0
 150 250 250 350 250 350 c 1
 250 380 l 2
 250 385 248 390 244 394 c 0
 240 398 235 400 230 400 c 0
 213 400 187 400 170 400 c 0
 165 400 160 398 156 394 c 0
 152 390 150 385 150 380 c 0
 150 366 150 350 150 350 c 1
 50 350 l 1
 50 400 l 2
 50 455 95 500 150 500 c 0
 182 500 218 500 250 500 c 0
 305 500 350 455 350 400 c 0
 350 290 350 117 350 40 c 0
 350 0 390 0 390 0 c 1
250 120 m 2
 250 250 l 1
 250 250 196 196 168 168 c 0
 156 156 150 141 150 125 c 0
 150 123 150 122 150 120 c 0
 150 115 152 110 156 106 c 0
 160 102 165 100 170 100 c 0
 187 100 213 100 230 100 c 0
 235 100 240 102 244 106 c 0
 248 110 250 115 250 120 c 2
EndSplineSet
Validated: 1
EndChar

StartChar: b
Encoding: 98 98 40
Width: 400
Flags: W
HStem: -0.00195312 99.999<171.737 267.795> 399.999 99.999<171.737 270.345> 680.002 20G<50 149.977>
VStem: 50 99.9766<-0.00195312 42.5225 115.086 384.91 457.48 700.002> 250.024 99.9775<115.086 384.91>
LayerCount: 2
Fore
SplineSet
350.001953125 99.9970703125 m 2
 350.001953125 44.80859375 300.68359375 -0.001953125 240.005859375 -0.001953125 c 0
 202.823242188 -0.001953125 169.944335938 16.8115234375 149.9765625 42.5224609375 c 1
 149.9765625 -0.001953125 l 1
 50 -0.001953125 l 1
 50 700.001953125 l 1
 149.9765625 700.001953125 l 1
 149.9765625 457.48046875 l 1
 169.944335938 483.19140625 202.823242188 499.998046875 240.005859375 499.998046875 c 0
 300.68359375 499.998046875 350.001953125 455.194335938 350.001953125 399.999023438 c 2
 350.001953125 99.9970703125 l 2
250.024414062 149.999023438 m 2
 250.024414062 349.99609375 l 2
 250.024414062 363.260742188 244.733398438 375.974609375 235.349609375 385.3515625 c 0
 225.96484375 394.728515625 213.265625 399.999023438 200.000976562 399.999023438 c 1
 186.736328125 399.999023438 174.036132812 394.728515625 164.65234375 385.3515625 c 0
 155.268554688 375.974609375 149.9765625 363.260742188 149.9765625 349.99609375 c 2
 149.9765625 149.999023438 l 2
 149.9765625 136.7421875 155.268554688 124.020507812 164.65234375 114.64453125 c 0
 174.036132812 105.267578125 186.736328125 99.9970703125 200.000976562 99.9970703125 c 1
 213.265625 99.9970703125 225.96484375 105.267578125 235.349609375 114.64453125 c 0
 244.733398438 124.020507812 250.024414062 136.7421875 250.024414062 149.999023438 c 2
EndSplineSet
Validated: 1
EndChar

StartChar: c
Encoding: 99 99 41
Width: 400
Flags: W
HStem: -0.00195312 99.999<166.772 245.398> 399.999 99.999<166.772 245.398>
VStem: 50 99.9775<118.299 381.704> 250.025 99.9766<104.926 149.999 349.996 395.071>
LayerCount: 2
Fore
SplineSet
231.962890625 499.998046875 m 1
 263.2890625 499.998046875 293.275390625 487.565429688 315.4296875 465.42578125 c 0
 337.583984375 443.291992188 350.001953125 413.263671875 350.001953125 381.958007812 c 2
 350.001953125 349.99609375 l 1
 250.025390625 349.99609375 l 1
 250.025390625 349.99609375 250.025390625 354.434570312 250.025390625 360.657226562 c 0
 250.025390625 382.388671875 232.385742188 399.999023438 210.655273438 399.999023438 c 1
 194.568359375 399.999023438 179.116210938 393.614257812 167.756835938 382.240234375 c 0
 156.397460938 370.8671875 149.977539062 355.443359375 149.977539062 339.356445312 c 0
 149.977539062 287.314453125 149.977539062 212.680664062 149.977539062 160.639648438 c 0
 149.977539062 144.559570312 156.397460938 129.135742188 167.756835938 117.762695312 c 0
 179.116210938 106.388671875 194.568359375 99.9970703125 210.655273438 99.9970703125 c 1
 232.385742188 99.9970703125 250.025390625 117.614257812 250.025390625 139.338867188 c 2
 250.025390625 149.999023438 l 1
 350.001953125 149.999023438 l 1
 350.001953125 149.999023438 350.001953125 136.70703125 350.001953125 118.038085938 c 0
 350.001953125 86.732421875 337.583984375 56.7109375 315.4296875 34.5703125 c 0
 293.275390625 12.4375 263.2890625 -0.001953125 231.962890625 -0.001953125 c 1
 131.491210938 -0.001953125 50 81.455078125 50 181.940429688 c 0
 50 226.284179688 50 273.71875 50 318.0625 c 0
 50 418.541015625 131.491210938 499.998046875 231.962890625 499.998046875 c 1
EndSplineSet
Validated: 1
EndChar

StartChar: d
Encoding: 100 100 42
Width: 400
Flags: W
HStem: -0.00195312 99.999<132.207 228.265> 399.999 99.999<129.657 228.265> 680.002 20G<250.025 350.002>
VStem: 50 99.9775<115.086 384.91> 250.025 99.9766<-0.00195312 42.5225 115.086 384.91 457.48 700.002>
LayerCount: 2
Fore
SplineSet
50 99.9970703125 m 2
 50 399.999023438 l 2
 50 455.194335938 99.318359375 499.998046875 159.99609375 499.998046875 c 0
 197.178710938 499.998046875 230.057617188 483.19140625 250.025390625 457.48046875 c 1
 250.025390625 700.001953125 l 1
 350.001953125 700.001953125 l 1
 350.001953125 -0.001953125 l 1
 250.025390625 -0.001953125 l 1
 250.025390625 42.5224609375 l 1
 230.057617188 16.8115234375 197.178710938 -0.001953125 159.99609375 -0.001953125 c 0
 99.318359375 -0.001953125 50 44.80859375 50 99.9970703125 c 2
149.977539062 149.999023438 m 2
 149.977539062 136.7421875 155.268554688 124.020507812 164.65234375 114.64453125 c 0
 174.037109375 105.267578125 186.736328125 99.9970703125 200.000976562 99.9970703125 c 1
 213.265625 99.9970703125 225.965820312 105.267578125 235.349609375 114.64453125 c 0
 244.733398438 124.020507812 250.025390625 136.7421875 250.025390625 149.999023438 c 2
 250.025390625 349.99609375 l 2
 250.025390625 363.260742188 244.733398438 375.974609375 235.349609375 385.3515625 c 0
 225.965820312 394.728515625 213.265625 399.999023438 200.000976562 399.999023438 c 1
 186.736328125 399.999023438 174.037109375 394.728515625 164.65234375 385.3515625 c 0
 155.268554688 375.974609375 149.977539062 363.260742188 149.977539062 349.99609375 c 2
 149.977539062 149.999023438 l 2
EndSplineSet
Validated: 1
EndChar

StartChar: e
Encoding: 101 101 43
Width: 400
Flags: W
HStem: -0.00195312 99.999<159.07 240.429> 200.002 99.999<149.978 249.955> 399.999 99.999<159.07 240.901>
VStem: 50 99.9775<109.222 200.002 300.001 390.774> 249.955 100.048<109.881 149.999 300.001 390.774>
LayerCount: 2
Fore
SplineSet
350.002929688 149.999023438 m 1
 350.002929688 149.985351562 l 2
 350.002929688 110.206054688 334.198242188 72.056640625 306.046875 43.92578125 c 0
 277.965820312 15.802734375 239.794921875 -0.001953125 200.001953125 -0.001953125 c 1
 117.168945312 -0.001953125 50 67.16015625 50 149.999023438 c 0
 50 213.259765625 50 286.743164062 50 349.99609375 c 0
 50 432.842773438 117.168945312 499.998046875 200.001953125 499.998046875 c 1
 282.833984375 499.998046875 350.002929688 432.842773438 350.002929688 349.99609375 c 2
 350.002929688 200.001953125 l 1
 149.977539062 200.001953125 l 1
 149.977539062 149.999023438 l 2
 149.977539062 122.383789062 172.34375 99.9970703125 200.001953125 99.9970703125 c 1
 227.588867188 99.9970703125 249.955078125 122.383789062 249.955078125 149.9921875 c 0
 249.955078125 149.999023438 249.955078125 149.999023438 249.955078125 149.999023438 c 1
 350.002929688 149.999023438 l 1
149.977539062 300.000976562 m 1
 249.955078125 300.000976562 l 1
 249.955078125 349.99609375 l 2
 249.955078125 377.612304688 227.588867188 399.999023438 200.001953125 399.999023438 c 1
 172.34375 399.999023438 149.977539062 377.612304688 149.977539062 349.99609375 c 2
 149.977539062 300.000976562 l 1
EndSplineSet
Validated: 1
EndChar

StartChar: f
Encoding: 102 102 44
Width: 349
Flags: W
HStem: -0.00195312 21G<100.023 200.001> 399.999 99.999<50 100.023 200.001 299.979> 600.003 99.999<202.953 299.979>
VStem: 100.023 99.9775<-0.00195312 399.999 499.998 597.07>
LayerCount: 2
Fore
SplineSet
100.0234375 -0.001953125 m 1
 100.0234375 399.999023438 l 1
 50 399.999023438 l 1
 50 499.998046875 l 1
 100.0234375 499.998046875 l 1
 100.0234375 558.26953125 l 2
 100.0234375 636.543945312 163.453125 700.001953125 241.76953125 700.001953125 c 2
 299.978515625 700.001953125 l 1
 299.978515625 600.002929688 l 1
 228.364257812 600.002929688 l 2
 212.701171875 600.002929688 200.000976562 587.310546875 200.000976562 571.654296875 c 2
 200.000976562 499.998046875 l 1
 299.978515625 499.998046875 l 1
 299.978515625 399.999023438 l 1
 200.000976562 399.999023438 l 1
 200.000976562 -0.001953125 l 1
 100.0234375 -0.001953125 l 1
EndSplineSet
Validated: 1
EndChar

StartChar: g
Encoding: 103 103 45
Width: 400
Flags: W
HStem: -199.999 99.999<159.861 240.103> -0.00195312 99.999<129.622 228.254> 399.999 99.999<132.17 228.254>
VStem: 50 99.9775<-90.1156 -49.9971 115.086 384.91> 249.955 100.048<-90.1065 42.5225 115.086 384.91 457.48 499.998>
LayerCount: 2
Fore
SplineSet
249.955078125 457.48046875 m 1
 249.955078125 499.998046875 l 1
 350.002929688 499.998046875 l 1
 350.002929688 -49.9970703125 l 2
 350.002929688 -89.7841796875 334.198242188 -127.93359375 306.046875 -156.063476562 c 0
 277.89453125 -184.194335938 239.794921875 -199.999023438 200.001953125 -199.999023438 c 2
 200.001953125 -199.999023438 199.930664062 -199.999023438 199.930664062 -199.999023438 c 2
 160.208007812 -199.999023438 122.038085938 -184.201171875 93.8857421875 -156.0703125 c 0
 65.8046875 -127.940429688 50 -89.791015625 50 -50.01171875 c 0
 50 -50.0048828125 50 -49.9970703125 50 -49.9970703125 c 1
 149.977539062 -49.9970703125 l 1
 149.977539062 -50.0048828125 l 2
 149.977539062 -77.6201171875 172.34375 -100 200.001953125 -100 c 1
 227.588867188 -100 249.955078125 -77.61328125 249.955078125 -49.9970703125 c 2
 249.955078125 42.5224609375 l 1
 230.05859375 16.8115234375 197.1796875 -0.001953125 159.99609375 -0.001953125 c 0
 99.248046875 -0.001953125 50 44.80859375 50 99.9970703125 c 2
 50 399.999023438 l 2
 50 455.194335938 99.248046875 499.998046875 159.99609375 499.998046875 c 0
 197.1796875 499.998046875 230.05859375 483.19140625 249.955078125 457.48046875 c 1
249.955078125 149.999023438 m 2
 249.955078125 349.99609375 l 2
 249.955078125 363.260742188 244.733398438 375.974609375 235.349609375 385.3515625 c 0
 225.965820312 394.728515625 213.265625 399.999023438 200.001953125 399.999023438 c 1
 186.737304688 399.999023438 173.966796875 394.728515625 164.653320312 385.3515625 c 0
 155.26953125 375.974609375 149.977539062 363.260742188 149.977539062 349.99609375 c 2
 149.977539062 149.999023438 l 2
 149.977539062 136.7421875 155.26953125 124.020507812 164.653320312 114.64453125 c 0
 173.966796875 105.267578125 186.737304688 99.9970703125 200.001953125 99.9970703125 c 1
 213.265625 99.9970703125 225.965820312 105.267578125 235.349609375 114.64453125 c 0
 244.733398438 124.020507812 249.955078125 136.7421875 249.955078125 149.999023438 c 2
EndSplineSet
Validated: 1
EndChar

StartChar: h
Encoding: 104 104 46
Width: 400
Flags: W
HStem: -0.00195312 21G<50 149.977 250.024 350.002> 399.999 99.999<172.133 270.734> 680.002 20G<50 149.977>
VStem: 50 99.9766<-0.00195312 390.774 457.48 700.002> 250.024 99.9775<-0.00195312 390.779>
LayerCount: 2
Fore
SplineSet
250.024414062 350.017578125 m 2
 250.024414062 377.625976562 227.587890625 399.999023438 200.000976562 399.999023438 c 1
 172.413085938 399.999023438 149.9765625 377.612304688 149.9765625 349.99609375 c 2
 149.9765625 -0.001953125 l 1
 50 -0.001953125 l 1
 50 700.001953125 l 1
 149.9765625 700.001953125 l 1
 149.9765625 457.48046875 l 1
 169.944335938 483.19140625 202.823242188 499.998046875 240.005859375 499.998046875 c 0
 300.68359375 499.998046875 350.001953125 455.194335938 350.001953125 399.999023438 c 2
 350.001953125 -0.001953125 l 1
 250.024414062 -0.001953125 l 1
 250.024414062 350.017578125 l 2
EndSplineSet
Validated: 1
EndChar

StartChar: i
Encoding: 105 105 47
Width: 199
Flags: W
HStem: -0.00195312 21G<50 149.977> 479.998 20G<50 149.977> 600.003 99.999<50 149.977>
VStem: 50 99.9766<-0.00195312 499.998 600.003 700.002>
LayerCount: 2
Fore
SplineSet
149.9765625 499.998046875 m 1
 149.9765625 -0.001953125 l 1
 50 -0.001953125 l 1
 50 499.998046875 l 1
 149.9765625 499.998046875 l 1
149.9765625 700.001953125 m 1
 149.9765625 600.002929688 l 1
 50 600.002929688 l 1
 50 700.001953125 l 1
 149.9765625 700.001953125 l 1
EndSplineSet
Validated: 1
EndChar

StartChar: j
Encoding: 106 106 48
Width: 299
Flags: W
HStem: -199.999 99.999<50 147.785> 479.998 20G<149.978 249.955> 600.003 99.999<149.978 249.955>
VStem: 149.978 99.9775<-97.8293 499.998 600.003 700.002>
LayerCount: 2
Fore
SplineSet
249.955078125 499.998046875 m 1
 249.955078125 -58.2666015625 l 2
 249.955078125 -95.8583984375 235.067382812 -131.905273438 208.467773438 -158.491210938 c 0
 181.869140625 -185.069335938 145.814453125 -199.999023438 108.208984375 -199.999023438 c 0
 75.470703125 -199.999023438 50 -199.999023438 50 -199.999023438 c 1
 50 -100 l 1
 121.614257812 -100 l 2
 137.27734375 -100 149.977539062 -87.3076171875 149.977539062 -71.6513671875 c 0
 149.977539062 47.298828125 149.977539062 499.998046875 149.977539062 499.998046875 c 1
 249.955078125 499.998046875 l 1
249.955078125 700.001953125 m 1
 249.955078125 600.002929688 l 1
 149.977539062 600.002929688 l 1
 149.977539062 700.001953125 l 1
 249.955078125 700.001953125 l 1
EndSplineSet
Validated: 1
EndChar

StartChar: k
Encoding: 107 107 49
Width: 400
Flags: W
HStem: -0.00195312 21G<50 149.978 240.021 350.003> 479.998 20G<240.02 350.003> 680.002 20G<50 149.978>
VStem: 50 99.9775<-0.00195312 200.002 300.001 700.002>
LayerCount: 2
Fore
SplineSet
50 -0.001953125 m 1
 50 700.001953125 l 1
 149.977539062 700.001953125 l 1
 149.977539062 300.000976562 l 1
 250.025390625 499.998046875 l 1
 350.002929688 499.998046875 l 1
 224.978515625 249.998046875 l 1
 350.002929688 -0.001953125 l 1
 250.025390625 -0.001953125 l 1
 149.977539062 200.001953125 l 1
 149.977539062 -0.001953125 l 1
 50 -0.001953125 l 1
EndSplineSet
Validated: 1
EndChar

StartChar: l
Encoding: 108 108 50
Width: 200
Flags: W
HStem: 0 21G<50 150.001> 680.002 20G<50 150.048>
VStem: 50 100<0 700.002>
LayerCount: 2
Fore
SplineSet
50 0 m 1
 50 700.001953125 l 1
 150.047851562 700.001953125 l 5
 150 0 l 5
 50 0 l 1
EndSplineSet
Validated: 1
EndChar

StartChar: m
Encoding: 109 109 51
Width: 599
Flags: W
HStem: -0.00195312 21G<50 149.978 250.025 350.003 449.98 549.957> 399.999 99.999<175.405 265.972 371.705 470.629>
VStem: 50 99.9775<-0.00195312 390.774 455.266 499.998> 250.025 99.9775<-0.00195312 390.774> 449.98 99.9766<-0.00195312 390.774>
LayerCount: 2
Fore
SplineSet
149.977539062 455.265625 m 1
 171.497070312 482.217773438 208.256835938 499.998046875 250.025390625 499.998046875 c 0
 291.159179688 499.998046875 327.495117188 482.690429688 349.15625 456.337890625 c 1
 368.912109375 482.690429688 402.284179688 499.998046875 439.9609375 499.998046875 c 0
 500.498046875 499.998046875 549.604492188 455.540039062 549.95703125 400.6484375 c 2
 549.95703125 399.999023438 l 1
 549.95703125 -0.001953125 l 1
 449.98046875 -0.001953125 l 1
 449.98046875 349.99609375 l 2
 449.98046875 377.612304688 427.614257812 399.999023438 399.956054688 399.999023438 c 1
 372.369140625 399.999023438 350.002929688 377.612304688 350.002929688 349.99609375 c 2
 350.002929688 -0.001953125 l 1
 250.025390625 -0.001953125 l 1
 250.025390625 349.99609375 l 2
 250.025390625 377.612304688 227.588867188 399.999023438 200.001953125 399.999023438 c 1
 172.34375 399.999023438 149.977539062 377.612304688 149.977539062 349.99609375 c 2
 149.977539062 -0.001953125 l 1
 50 -0.001953125 l 1
 50 499.998046875 l 1
 149.977539062 499.998046875 l 1
 149.977539062 455.265625 l 1
EndSplineSet
Validated: 1
EndChar

StartChar: n
Encoding: 110 110 52
Width: 400
Flags: W
HStem: -0.00195312 21G<50 149.978 249.955 350.003> 399.999 99.999<172.103 270.606>
VStem: 50 99.9775<-0.00195312 390.774 457.48 499.998> 249.955 100.048<-0.00195312 390.774>
LayerCount: 2
Fore
SplineSet
149.977539062 349.99609375 m 2
 149.977539062 -0.001953125 l 1
 50 -0.001953125 l 1
 50 499.998046875 l 1
 149.977539062 499.998046875 l 1
 149.977539062 457.48046875 l 1
 169.874023438 483.19140625 202.82421875 499.998046875 240.006835938 499.998046875 c 0
 300.47265625 499.998046875 349.579101562 455.540039062 350.002929688 400.6484375 c 2
 350.002929688 399.999023438 l 1
 350.002929688 -0.001953125 l 1
 249.955078125 -0.001953125 l 1
 249.955078125 349.99609375 l 2
 249.955078125 377.612304688 227.588867188 399.999023438 200.001953125 399.999023438 c 1
 172.34375 399.999023438 149.977539062 377.612304688 149.977539062 349.99609375 c 2
EndSplineSet
Validated: 1
EndChar

StartChar: o
Encoding: 111 111 53
Width: 400
Flags: W
HStem: -0.00195312 99.999<151.139 248.862> 399.999 99.999<151.139 248.862>
VStem: 50 99.9766<101.151 398.847> 250.024 99.9775<101.151 398.847>
LayerCount: 2
Fore
SplineSet
350.001953125 349.99609375 m 0
 350.001953125 286.743164062 350.001953125 213.259765625 350.001953125 149.999023438 c 0
 350.001953125 110.220703125 334.197265625 72.0634765625 306.045898438 43.93359375 c 0
 277.96484375 15.802734375 239.793945312 -0.001953125 200.000976562 -0.001953125 c 1
 160.20703125 -0.001953125 122.037109375 15.802734375 93.9560546875 43.93359375 c 0
 65.8037109375 72.0634765625 50 110.220703125 50 149.999023438 c 0
 50 213.259765625 50 286.743164062 50 349.99609375 c 0
 50 389.782226562 65.8037109375 427.931640625 93.9560546875 456.0625 c 0
 122.037109375 484.193359375 160.20703125 499.998046875 200.000976562 499.998046875 c 1
 239.793945312 499.998046875 277.96484375 484.193359375 306.045898438 456.0625 c 0
 334.197265625 427.931640625 350.001953125 389.782226562 350.001953125 349.99609375 c 0
250.024414062 371.649414062 m 0
 250.024414062 387.306640625 237.325195312 399.999023438 221.661132812 399.999023438 c 0
 208.114257812 399.999023438 191.88671875 399.999023438 178.33984375 399.999023438 c 0
 162.676757812 399.999023438 149.9765625 387.306640625 149.9765625 371.649414062 c 0
 149.9765625 314.408203125 149.9765625 185.594726562 149.9765625 128.345703125 c 0
 149.9765625 112.689453125 162.676757812 99.9970703125 178.33984375 99.9970703125 c 0
 191.88671875 99.9970703125 208.114257812 99.9970703125 221.661132812 99.9970703125 c 0
 237.325195312 99.9970703125 250.024414062 112.689453125 250.024414062 128.345703125 c 0
 250.024414062 185.594726562 250.024414062 314.408203125 250.024414062 371.649414062 c 0
EndSplineSet
Validated: 1
EndChar

StartChar: p
Encoding: 112 112 54
Width: 400
Flags: W
HStem: -199.999 21G<50 149.977> -0.00195312 99.999<171.737 270.345> 399.999 99.999<171.737 267.795>
VStem: 50 99.9766<-199.999 42.5225 115.086 384.91 457.48 499.998> 250.024 99.9775<115.086 384.91>
LayerCount: 2
Fore
SplineSet
350.001953125 99.9970703125 m 2
 350.001953125 44.80859375 300.68359375 -0.001953125 240.005859375 -0.001953125 c 0
 202.823242188 -0.001953125 169.944335938 16.8115234375 149.9765625 42.5224609375 c 1
 149.9765625 -199.999023438 l 1
 50 -199.999023438 l 1
 50 499.998046875 l 1
 149.9765625 499.998046875 l 1
 149.9765625 457.48046875 l 1
 169.944335938 483.19140625 202.823242188 499.998046875 240.005859375 499.998046875 c 0
 300.68359375 499.998046875 350.001953125 455.194335938 350.001953125 399.999023438 c 2
 350.001953125 99.9970703125 l 2
250.024414062 149.999023438 m 2
 250.024414062 349.99609375 l 2
 250.024414062 363.260742188 244.733398438 375.974609375 235.349609375 385.3515625 c 0
 225.96484375 394.728515625 213.265625 399.999023438 200.000976562 399.999023438 c 1
 186.736328125 399.999023438 174.036132812 394.728515625 164.65234375 385.3515625 c 0
 155.268554688 375.974609375 149.9765625 363.260742188 149.9765625 349.99609375 c 2
 149.9765625 149.999023438 l 2
 149.9765625 136.7421875 155.268554688 124.020507812 164.65234375 114.64453125 c 0
 174.036132812 105.267578125 186.736328125 99.9970703125 200.000976562 99.9970703125 c 1
 213.265625 99.9970703125 225.96484375 105.267578125 235.349609375 114.64453125 c 0
 244.733398438 124.020507812 250.024414062 136.7421875 250.024414062 149.999023438 c 2
EndSplineSet
Validated: 1
EndChar

StartChar: q
Encoding: 113 113 55
Width: 400
Flags: W
HStem: -199.999 21G<250.025 350.002> -0.00195312 99.999<129.657 228.265> 399.999 99.999<132.207 228.265>
VStem: 50 99.9775<115.086 384.91> 250.025 99.9766<-199.999 42.5225 115.086 384.91 457.48 499.998>
LayerCount: 2
Fore
SplineSet
50 99.9970703125 m 2
 50 399.999023438 l 2
 50 455.194335938 99.318359375 499.998046875 159.99609375 499.998046875 c 0
 197.178710938 499.998046875 230.057617188 483.19140625 250.025390625 457.48046875 c 1
 250.025390625 499.998046875 l 1
 350.001953125 499.998046875 l 1
 350.001953125 -199.999023438 l 1
 250.025390625 -199.999023438 l 1
 250.025390625 42.5224609375 l 1
 230.057617188 16.8115234375 197.178710938 -0.001953125 159.99609375 -0.001953125 c 0
 99.318359375 -0.001953125 50 44.80859375 50 99.9970703125 c 2
149.977539062 149.999023438 m 2
 149.977539062 136.7421875 155.268554688 124.020507812 164.65234375 114.64453125 c 0
 174.037109375 105.267578125 186.736328125 99.9970703125 200.000976562 99.9970703125 c 1
 213.265625 99.9970703125 225.965820312 105.267578125 235.349609375 114.64453125 c 0
 244.733398438 124.020507812 250.025390625 136.7421875 250.025390625 149.999023438 c 2
 250.025390625 349.99609375 l 2
 250.025390625 363.260742188 244.733398438 375.974609375 235.349609375 385.3515625 c 0
 225.965820312 394.728515625 213.265625 399.999023438 200.000976562 399.999023438 c 1
 186.736328125 399.999023438 174.037109375 394.728515625 164.65234375 385.3515625 c 0
 155.268554688 375.974609375 149.977539062 363.260742188 149.977539062 349.99609375 c 2
 149.977539062 149.999023438 l 2
EndSplineSet
Validated: 1
EndChar

StartChar: r
Encoding: 114 114 56
Width: 349
Flags: W
HStem: -0 21G<50 150> 400 100<179.351 300>
VStem: 50 100<0 370.649 440 500>
LayerCount: 2
Fore
SplineSet
50 -0 m 1
 50 500 l 1
 150 500 l 1
 150 440 l 1
 150 456 156 471 168 482 c 0
 179 494 194 500 210 500 c 2
 300 500 l 1
 300 400 l 1
 235 400 l 2
 188 400 150 362 150 315 c 2
 150 -0 l 1
 50 -0 l 1
EndSplineSet
Validated: 1
EndChar

StartChar: s
Encoding: 115 115 57
Width: 400
Flags: W
HStem: -0.00195312 99.999<152.17 249.121> 399.999 99.999<150.858 247.829>
VStem: 50 99.9775<102.171 149.999 334.664 399.133> 249.954 100.048<100.867 165.332 349.996 397.828>
LayerCount: 2
Fore
SplineSet
50 149.999023438 m 1
 149.977539062 149.999023438 l 1
 149.977539062 128.345703125 l 2
 149.977539062 112.689453125 162.676757812 99.9970703125 178.340820312 99.9970703125 c 0
 191.887695312 99.9970703125 208.115234375 99.9970703125 221.662109375 99.9970703125 c 0
 237.325195312 99.9970703125 249.954101562 112.689453125 249.954101562 128.345703125 c 0
 249.954101562 130.928710938 249.954101562 133.454101562 249.954101562 135.825195312 c 0
 249.954101562 144.75 245.791992188 153.153320312 238.666015625 158.500976562 c 0
 212.771484375 177.911132812 148.001953125 226.489257812 101.576171875 261.307617188 c 0
 69.1201171875 285.6640625 50 323.890625 50 364.48828125 c 0
 50 364.495117188 50 364.495117188 50 364.502929688 c 0
 50 400.436523438 64.251953125 434.903320312 89.65234375 460.310546875 c 0
 115.123046875 485.724609375 149.553710938 499.998046875 185.466796875 499.998046875 c 0
 193.086914062 499.998046875 200.70703125 499.998046875 208.255859375 499.998046875 c 0
 245.862304688 499.998046875 281.916015625 485.068359375 308.4453125 458.489257812 c 0
 335.044921875 431.904296875 350.001953125 395.857421875 350.001953125 358.265625 c 0
 350.001953125 353.043945312 350.001953125 349.99609375 350.001953125 349.99609375 c 1
 249.954101562 349.99609375 l 1
 249.954101562 371.649414062 l 2
 249.954101562 387.306640625 237.325195312 399.999023438 221.662109375 399.999023438 c 0
 208.115234375 399.999023438 191.887695312 399.999023438 178.340820312 399.999023438 c 0
 162.676757812 399.999023438 149.977539062 387.306640625 149.977539062 371.649414062 c 0
 149.977539062 369.07421875 149.977539062 366.541992188 149.977539062 364.170898438 c 0
 149.977539062 355.252929688 154.2109375 346.849609375 161.336914062 341.494140625 c 0
 187.23046875 322.084960938 252.000976562 273.513671875 298.42578125 238.6953125 c 0
 330.881835938 214.33203125 350.001953125 176.10546875 350.001953125 135.5078125 c 2
 350.001953125 135.5078125 350.001953125 135.5 350.001953125 135.5 c 2
 350.001953125 99.5595703125 335.75 65.099609375 310.279296875 39.685546875 c 0
 284.879882812 14.2783203125 250.448242188 -0.001953125 214.46484375 -0.001953125 c 0
 206.916015625 -0.001953125 199.295898438 -0.001953125 191.74609375 -0.001953125 c 0
 154.139648438 -0.001953125 118.0859375 14.9345703125 91.486328125 41.513671875 c 0
 64.88671875 68.091796875 50 104.145507812 50 141.73046875 c 0
 50 146.951171875 50 149.999023438 50 149.999023438 c 1
EndSplineSet
Validated: 1
EndChar

StartChar: t
Encoding: 116 116 58
Width: 349
Flags: W
HStem: -0.00195312 99.999<202.908 299.979> 399.999 99.999<50 99.9531 200.001 299.979> 680.002 20G<99.9531 200.001>
VStem: 99.9531 100.048<102.93 399.999 499.998 700.002>
LayerCount: 2
Fore
SplineSet
50 499.998046875 m 1
 99.953125 499.998046875 l 1
 99.953125 700.001953125 l 1
 200.000976562 700.001953125 l 1
 200.000976562 499.998046875 l 1
 299.978515625 499.998046875 l 1
 299.978515625 399.999023438 l 1
 200.000976562 399.999023438 l 1
 200.000976562 128.345703125 l 2
 200.000976562 112.689453125 212.701171875 99.9970703125 228.364257812 99.9970703125 c 0
 257.926757812 99.9970703125 299.978515625 99.9970703125 299.978515625 99.9970703125 c 1
 299.978515625 -0.001953125 l 1
 241.69921875 -0.001953125 l 2
 163.453125 -0.001953125 99.953125 63.4560546875 99.953125 141.73046875 c 0
 99.953125 256.778320312 99.953125 399.999023438 99.953125 399.999023438 c 1
 50 399.999023438 l 1
 50 499.998046875 l 1
EndSplineSet
Validated: 1
EndChar

StartChar: u
Encoding: 117 117 59
Width: 400
Flags: W
HStem: 0.00195312 99.999<129.397 227.9> 480.002 20G<50 150.048 250.025 350.003>
VStem: 50 100.048<109.226 500.002> 250.025 99.9775<0.00195312 42.5195 109.226 500.002>
LayerCount: 2
Fore
SplineSet
250.025390625 150.00390625 m 2
 250.025390625 500.001953125 l 1
 350.002929688 500.001953125 l 1
 350.002929688 0.001953125 l 1
 250.025390625 0.001953125 l 1
 250.025390625 42.51953125 l 1
 230.12890625 16.80859375 197.178710938 0.001953125 159.99609375 0.001953125 c 0
 99.5302734375 0.001953125 50.423828125 44.4599609375 50 99.3515625 c 2
 50 100.000976562 l 1
 50 500.001953125 l 1
 150.047851562 500.001953125 l 1
 150.047851562 150.00390625 l 2
 150.047851562 122.387695312 172.4140625 100.000976562 200.000976562 100.000976562 c 1
 227.659179688 100.000976562 250.025390625 122.387695312 250.025390625 150.00390625 c 2
EndSplineSet
Validated: 1
EndChar

StartChar: v
Encoding: 118 118 60
Width: 450
Flags: W
HStem: -0.00195312 21G<170.023 280.003> 479.998 20G<50 154.978 294.978 400.026>
LayerCount: 2
Fore
SplineSet
50 499.998046875 m 1
 149.977539062 499.998046875 l 1
 224.978515625 200.001953125 l 1
 299.978515625 499.998046875 l 1
 400.026367188 499.998046875 l 1
 275.001953125 -0.001953125 l 1
 175.024414062 -0.001953125 l 1
 50 499.998046875 l 1
EndSplineSet
Validated: 1
EndChar

StartChar: w
Encoding: 119 119 61
Width: 600
Flags: W
HStem: -0.00195312 21G<145.978 253.593 346.429 453.981> 479.998 20G<50 154.525 245.478 354.55 445.438 550.027>
LayerCount: 2
Fore
SplineSet
50 499.998046875 m 1
 149.977539062 499.998046875 l 1
 200.000976562 279.998046875 l 1
 250.025390625 499.998046875 l 1
 350.001953125 499.998046875 l 1
 400.026367188 279.998046875 l 1
 449.979492188 499.998046875 l 1
 550.02734375 499.998046875 l 1
 449.979492188 -0.001953125 l 1
 350.001953125 -0.001953125 l 1
 299.978515625 279.998046875 l 1
 250.025390625 -0.001953125 l 1
 149.977539062 -0.001953125 l 1
 50 499.998046875 l 1
EndSplineSet
Validated: 1
EndChar

StartChar: x
Encoding: 120 120 62
Width: 400
Flags: W
HStem: -0.00195312 21G<57.9982 149.978 242.022 350.002> 479.998 20G<50 157.981 250.025 342.004>
VStem: 50 300.002
LayerCount: 2
Fore
SplineSet
50 499.998046875 m 1
 149.977539062 499.998046875 l 1
 200.000976562 375.000976562 l 1
 250.025390625 499.998046875 l 1
 350.001953125 499.998046875 l 1
 250.025390625 249.998046875 l 1
 350.001953125 -0.001953125 l 1
 250.025390625 -0.001953125 l 1
 200.000976562 125.001953125 l 1
 149.977539062 -0.001953125 l 1
 50 -0.001953125 l 1
 149.977539062 249.998046875 l 1
 50 499.998046875 l 1
EndSplineSet
Validated: 1
EndChar

StartChar: y
Encoding: 121 121 63
Width: 450
Flags: W
HStem: -199.999 99.999<50 154.648> 479.998 20G<50 155.048 295.049 400.026>
LayerCount: 2
Fore
SplineSet
175.024414062 -0.001953125 m 1
 50 499.998046875 l 1
 150.047851562 499.998046875 l 1
 225.048828125 200.001953125 l 1
 300.048828125 499.998046875 l 1
 400.026367188 499.998046875 l 1
 400.026367188 499.998046875 304.423828125 117.62890625 254.541015625 -81.91015625 c 0
 237.184570312 -151.30859375 174.813476562 -199.999023438 103.26953125 -199.999023438 c 0
 73.4951171875 -199.999023438 50 -199.999023438 50 -199.999023438 c 1
 50 -100 l 1
 127.893554688 -100 l 2
 140.875976562 -100 152.235351562 -91.1455078125 155.41015625 -78.5302734375 c 0
 162.748046875 -49.1435546875 175.024414062 -0.001953125 175.024414062 -0.001953125 c 1
EndSplineSet
Validated: 1
EndChar

StartChar: z
Encoding: 122 122 64
Width: 349
Flags: W
HStem: -0.00195312 99.999<150.048 299.979> 399.999 99.999<50 200.001>
VStem: 50 249.979<-0.00195312 99.9971 399.999 499.998>
LayerCount: 2
Fore
SplineSet
50 499.998046875 m 1
 299.978515625 499.998046875 l 1
 299.978515625 399.999023438 l 1
 150.047851562 99.9970703125 l 1
 299.978515625 99.9970703125 l 1
 299.978515625 -0.001953125 l 1
 50 -0.001953125 l 1
 50 99.9970703125 l 1
 200.000976562 399.999023438 l 1
 50 399.999023438 l 1
 50 499.998046875 l 1
EndSplineSet
Validated: 1
EndChar

StartChar: slash
Encoding: 47 47 65
Width: 450
Flags: W
LayerCount: 2
Fore
SplineSet
50 -100 m 1
 299.978515625 800 l 1
 400.026367188 800 l 1
 149.977539062 -100 l 1
 50 -100 l 1
EndSplineSet
Validated: 1
EndChar

StartChar: comma
Encoding: 44 44 66
Width: 199
Flags: W
HStem: 0.00292969 99.999<50 99.9531>
VStem: 50 99.9766<0.00292969 100.002>
LayerCount: 2
Fore
SplineSet
50 100.001953125 m 1
 149.9765625 100.001953125 l 1
 149.9765625 0.0029296875 l 1
 99.953125 -100.001953125 l 1
 50 -100.001953125 l 1
 99.953125 0.0029296875 l 1
 50 0.0029296875 l 1
 50 100.001953125 l 1
EndSplineSet
Validated: 1
EndChar

StartChar: period
Encoding: 46 46 67
Width: 199
Flags: W
HStem: -0.00195312 99.999<50 149.998>
VStem: 50 99.998<-0.00195312 99.9971>
LayerCount: 2
Fore
SplineSet
50 -0.001953125 m 1
 50 99.9970703125 l 1
 149.998046875 99.9970703125 l 1
 149.998046875 -0.001953125 l 1
 50 -0.001953125 l 1
EndSplineSet
Validated: 1
EndChar

StartChar: hyphen
Encoding: 45 45 68
Width: 400
Flags: W
HStem: 320.001 99.998<50 350.003>
VStem: 50 300.003<320.001 419.999>
LayerCount: 2
Fore
SplineSet
50 320.000976562 m 1
 50 419.999023438 l 1
 350.002929688 419.999023438 l 1
 350.002929688 320.000976562 l 1
 50 320.000976562 l 1
EndSplineSet
Validated: 1
EndChar

StartChar: quotesingle
Encoding: 39 39 69
Width: 199
Flags: W
HStem: 499.998 21G<50 109.957> 600.003 99.999<50 99.9531>
VStem: 50 99.9766<600.003 700.002>
LayerCount: 2
Fore
SplineSet
50 700.001953125 m 1
 149.9765625 700.001953125 l 1
 149.9765625 600.002929688 l 1
 99.953125 499.998046875 l 1
 50 499.998046875 l 1
 99.953125 600.002929688 l 1
 50 600.002929688 l 1
 50 700.001953125 l 1
EndSplineSet
Validated: 1
EndChar

StartChar: ampersand
Encoding: 38 38 70
Width: 525
Flags: W
HStem: 0 109<194.586 302.415> 0 100<436.241 475>
VStem: 50 121<131.968 255.861> 88 100<497.924 602.061> 250 99<498.061 601.597>
LayerCount: 2
Fore
SplineSet
125 438 m 1xa8
 125 438 121 445 115 455 c 0
 97 485 88 518 88 551 c 0
 88 591 101 630 125 662 c 2
 130 667 l 2
 154 691 186 704 219 704 c 0
 220 704 222 704 223 704 c 0
 258 702 290 687 313 660 c 2
 323 643 l 2
 340 613 349 579 349 545 c 0
 349 514 342 483 328 455 c 0
 326 452 325 450 325 450 c 1
 271 369 l 1
 356 242 l 1
 375 300 l 1
 475 300 l 1
 422 142 l 1
 422 142 433 126 441 113 c 0
 447 105 456 100 466 100 c 0
 471 100 475 100 475 100 c 1
 475 0 l 1
 473 0 l 2x58
 443 0 414 14 395 38 c 0
 385 51 375 62 375 62 c 1
 375 62 325 23 300 12 c 0
 280 4 259 -0 236 -0 c 0
 233 -0 229 -0 225 0 c 0
 198 2 161 12 138 25 c 0
 117 36 100 58 88 75 c 0x98
 77 90 68 107 63 125 c 0
 57 144 50 169 50 192 c 0
 50 195 50 197 50 200 c 0
 52 227 75 288 75 288 c 1
 150 400 l 1
 125 438 l 1xa8
325 150 m 1
 225 300 l 1
 225 300 208 277 191 254 c 0
 177 236 171 215 171 194 c 0xa8
 171 176 175 158 185 142 c 2
 188 137 l 2
 201 121 220 111 241 109 c 0
 244 109 246 109 249 109 c 0x98
 267 109 285 115 299 127 c 0
 313 140 325 150 325 150 c 1
198 595 m 2
 191 581 188 566 188 550 c 0x18
 188 534 191 519 198 505 c 0
 199 502 200 500 200 500 c 1
 200 500 201 499 202 499 c 0
 207 496 213 494 219 494 c 0
 225 494 231 496 236 499 c 0
 237 499 238 500 238 500 c 1
 240 505 l 2
 247 519 250 534 250 550 c 0
 250 566 247 581 240 595 c 0
 239 598 238 600 238 600 c 1
 238 600 237 601 236 601 c 0
 231 604 225 606 219 606 c 0
 213 606 207 604 202 601 c 0
 201 601 200 600 200 600 c 1
 198 595 l 2
EndSplineSet
Validated: 1
EndChar

StartChar: uni2B05
Encoding: 11013 11013 71
Width: 1100
Flags: W
HStem: 218.609 160<370 1050>
LayerCount: 2
Fore
SplineSet
330 581.737304688 m 1
 570 578.609375 l 1
 370 378.609375 l 1
 1050 378.609375 l 1
 1050 218.609375 l 1
 370 218.609375 l 1
 570 18.2646484375 l 1
 330 18.609375 l 1
 50 300.000976562 l 1
 330 581.737304688 l 1
EndSplineSet
Validated: 1
EndChar

StartChar: uni2B06
Encoding: 11014 11014 72
Width: 663
Flags: W
HStem: -200 21G<250.344 410.344>
VStem: 250.344 160<-200 480>
LayerCount: 2
Fore
SplineSet
613.471679688 520 m 1
 610.34375 280 l 1
 410.34375 480 l 1
 410.34375 -200 l 1
 250.34375 -200 l 1
 250.34375 480 l 1
 50 280 l 1
 50.34375 520 l 1
 331.736328125 800 l 1
 613.471679688 520 l 1
EndSplineSet
Validated: 1
EndChar

StartChar: uni2B07
Encoding: 11015 11015 73
Width: 663
Flags: W
HStem: -200 21G<311.611 351.835>
VStem: 253.128 160<120 800>
LayerCount: 2
Fore
SplineSet
50 80 m 1
 53.1279296875 320 l 1
 253.127929688 120 l 1
 253.127929688 800 l 1
 413.127929688 800 l 1
 413.127929688 120 l 1
 613.471679688 320 l 1
 613.127929688 80 l 1
 331.735351562 -200 l 1
 50 80 l 1
EndSplineSet
Validated: 1
EndChar

StartChar: uni2197
Encoding: 8599 8599 74
Width: 810
Flags: W
LayerCount: 2
Fore
SplineSet
760.432617188 318.594726562 m 1
 620.211914062 123.791992188 l 1
 571.096679688 402.337890625 l 1
 181.064453125 -154.685546875 l 1
 50 -62.9130859375 l 1
 440.032226562 494.110351562 l 1
 161.204101562 445.192382812 l 1
 299.14453125 641.591796875 l 1
 690.249023438 709.5546875 l 1
 760.432617188 318.594726562 l 1
EndSplineSet
Validated: 1
EndChar

StartChar: uni2198
Encoding: 8600 8600 75
Width: 807
Flags: W
LayerCount: 2
Fore
SplineSet
296.58203125 -41.810546875 m 1
 161.486328125 156.580078125 l 1
 440.03125 107.46484375 l 1
 50 664.48828125 l 1
 181.064453125 756.260742188 l 1
 571.095703125 199.237304688 l 1
 620.493164062 477.979492188 l 1
 757.870117188 281.185546875 l 1
 687.967773438 -109.576171875 l 1
 296.58203125 -41.810546875 l 1
EndSplineSet
Validated: 1
EndChar

StartChar: uni2199
Encoding: 8601 8601 76
Width: 810
Flags: W
LayerCount: 2
Fore
SplineSet
50 281.405273438 m 1
 190.220703125 476.208007812 l 1
 239.3359375 197.662109375 l 1
 629.368164062 754.685546875 l 1
 760.432617188 662.913085938 l 1
 370.400390625 105.889648438 l 1
 649.228515625 154.807617188 l 1
 511.288085938 -41.591796875 l 1
 120.18359375 -109.5546875 l 1
 50 281.405273438 l 1
EndSplineSet
Validated: 1
EndChar

StartChar: uni2196
Encoding: 8598 8598 77
Width: 807
Flags: W
LayerCount: 2
Fore
SplineSet
511.288085938 641.810546875 m 1
 646.383789062 443.419921875 l 1
 367.838867188 492.53515625 l 1
 757.870117188 -64.48828125 l 1
 626.805664062 -156.260742188 l 1
 236.774414062 400.762695312 l 1
 187.376953125 122.020507812 l 1
 50 318.814453125 l 1
 119.90234375 709.576171875 l 1
 511.288085938 641.810546875 l 1
EndSplineSet
Validated: 1
EndChar

StartChar: uni27A1
Encoding: 10145 10145 78
Width: 1100
Flags: W
HStem: 221.391 160<50 730>
LayerCount: 2
Fore
SplineSet
770 18.2626953125 m 1
 530 21.390625 l 1
 730 221.390625 l 1
 50 221.390625 l 1
 50 381.390625 l 1
 730 381.390625 l 1
 530 581.735351562 l 1
 770 581.390625 l 1
 1050 299.999023438 l 1
 770 18.2626953125 l 1
EndSplineSet
Validated: 1
EndChar

StartChar: uni25B6
Encoding: 9654 9654 79
Width: 1380
Flags: W
HStem: 180 240<50 890>
LayerCount: 2
Fore
SplineSet
1330 300 m 1
 950 -80 l 1
 630 -80 l 1
 890 180 l 1
 50 180 l 1
 50 420 l 1
 890 420 l 1
 630 680 l 1
 950 680 l 1
 1330 300 l 1
EndSplineSet
Validated: 1
EndChar

StartChar: u1F53D
Encoding: 128317 128317 80
Width: 2500
Flags: W
LayerCount: 2
Fore
SplineSet
1250 -80 m 1
 50 400 l 1
 770 400 l 1
 770 640 l 1
 1730 640 l 1
 1730 400 l 1
 2450 400 l 1
 1250 -80 l 1
EndSplineSet
Validated: 1
EndChar

